<svg xmlns="http://www.w3.org/2000/svg">

  <symbol id="tiger-icon" viewBox="0 0 64 54">
    <path d="M17.1229 37.4213C17.0882 37.4827 17.0592 37.5529 16.9897 37.6756C16.2153 36.3737 15.9906 34.9338 15.7165 33.5141C15.6669 33.4963 15.6087 33.4843 15.565 33.4753C15.3973 33.9052 15.1742 34.3085 15.0735 34.7447C14.7249 36.173 14.8303 37.6036 15.1714 39.0294C15.5888 40.7223 16.0062 42.4151 16.3625 44.1106C16.6275 45.3837 16.7821 46.6797 16.503 47.9853C16.1981 49.4227 15.5608 50.5859 14.1129 51.1326C13.4675 51.3727 12.8329 51.2876 12.2472 50.9536C11.676 50.6226 11.6018 50.0362 12.0954 49.6049C12.3887 49.3455 12.7227 49.0717 13.0832 48.9328C13.7955 48.6608 14.1609 48.1497 14.2173 47.4379C14.271 46.7788 14.2925 46.0903 14.1774 45.4421C13.8589 43.7087 13.4763 41.9926 13.0705 40.2792C12.6147 38.3576 12.348 36.4369 12.6808 34.4722C12.9704 32.7652 13.7089 31.3183 15.0623 30.2113C15.161 30.1327 15.251 30.0598 15.3498 29.9812C15.4108 29.9405 15.4689 29.9144 15.5794 29.8534C15.6646 30.1908 15.7323 30.5017 15.8087 30.8069C16.2631 28.6464 16.3972 26.3819 18.1974 24.735C20.8375 26.216 22.3011 28.5205 22.8904 31.4597C23.4205 28.104 21.4214 25.7881 19.4686 23.3903C19.9568 23.1025 20.4188 22.8323 20.8809 22.562C21.2732 22.3383 21.6655 22.1145 22.0606 21.8762C22.9498 21.3589 22.976 21.3414 23.5776 22.2118C24.1413 23.0438 24.6352 23.9224 25.1495 24.7747C25.246 24.9393 25.3337 25.1097 25.4795 25.254C25.3826 23.7033 24.7506 22.3317 23.9789 20.939C24.8624 20.451 25.7225 19.9658 26.6061 19.5159C26.7252 19.4491 26.967 19.5675 27.1157 19.659C28.7973 20.6987 29.7819 22.2801 30.4644 24.0885C30.6695 24.6258 30.8484 25.1805 31.0854 25.7091C31.0816 22.9897 29.7142 20.7735 28.3146 18.4898C29.3169 17.8207 30.2931 17.169 31.3303 16.4766C32.3135 17.5246 32.896 18.8784 33.5337 20.2207C33.5951 19.1748 33.3134 18.2181 32.8077 17.3219C32.6294 16.9958 32.4424 16.6754 32.2292 16.3726C31.9693 15.9992 31.9743 15.6651 32.2965 15.3355C32.9467 14.6852 33.5853 14.0173 34.2355 13.367C36.8209 15.0499 38.3689 17.349 38.9495 20.332C39.0911 18.762 38.6772 17.2831 38.1091 15.8562C37.5439 14.4146 36.6242 13.1969 35.469 12.0602C36.7872 10.8622 38.059 9.70794 39.3656 8.53042C40.5708 9.91358 41.5636 11.2605 42.0391 12.9273C41.9124 11.104 41.3205 9.4513 40.1614 7.91013C40.7805 7.61131 41.3239 7.31212 41.8908 7.08631C42.0129 7.04295 42.2373 7.17298 42.3918 7.27337C43.0709 7.71038 43.7961 7.95127 44.6225 7.90841C43.6704 7.70451 43.1362 7.03084 42.7152 6.24344C42.4141 5.69399 42.6141 5.36969 43.2076 5.31691C44.1968 5.21623 45.1771 5.08328 46.1545 4.92686C46.8264 4.82171 47.4748 4.60509 48.1468 4.49994C49.162 4.34371 50.0938 4.57389 51.0348 5.02683C51.7399 5.37018 52.5666 5.47971 53.3556 5.62714C53.836 5.72618 54.2794 6.1298 54.298 6.61341C54.3076 6.95045 54.3259 7.28167 54.3674 7.61008C54.489 8.53375 54.2086 9.30601 53.5789 10.0062C53.5205 9.91804 53.4709 9.86212 53.4387 9.79457C53.1518 9.09573 53.1576 9.10455 52.4363 9.26808C51.7529 9.43178 51.0958 9.65422 50.6258 10.2351C50.0833 10.9152 50.0242 11.7179 50.5058 12.3121C50.894 12.8034 51.9653 12.9405 52.6017 12.5919C52.7208 12.5251 52.84 12.4583 52.9591 12.3915C53.2781 13.1198 53.1689 13.676 52.5968 14.1597C52.1438 14.5384 51.647 14.8701 51.13 15.2661C50.5355 14.8998 49.903 14.4953 49.2532 14.1405C48.5888 13.7827 47.8985 13.5185 47.0232 13.7721C47.3612 13.9408 47.6147 14.0768 47.9643 14.2631C46.5224 14.8568 45.5528 15.784 45.015 17.2114C44.8304 16.686 44.6516 16.1693 44.4318 15.5529C44.1925 18.7781 46.6796 23.1213 51.5692 24.6016C51.3424 24.6766 51.1651 24.7315 50.9848 24.8009C50.9907 24.8478 50.988 24.9006 50.9939 24.9475C51.2005 24.9368 51.4013 24.9553 51.5991 24.9123C52.2797 24.7633 52.9514 24.5819 53.6379 24.4417C54.301 24.3042 54.9009 24.4888 55.5248 24.9373C54.6445 25.525 53.8339 26.0661 53.0321 26.6014C52.3464 27.0464 51.6666 27.5002 50.9693 27.9276C50.8327 28.006 50.6 28.0342 50.4688 27.9691C47.7185 26.6253 44.8012 26.0543 41.7776 26.0249C40.794 26.0201 39.9175 25.7785 39.1158 25.1944C38.903 25.0439 38.6554 24.9548 38.3585 24.924C38.6882 25.289 39.0093 25.6598 39.4003 26.0983C35.7379 26.6226 32.4119 27.8636 29.3555 29.8912C28.9668 29.2094 28.6014 28.563 28.2419 27.9253C28.21 27.9339 28.1867 27.9368 28.1547 27.9454C28.2075 28.1391 28.243 28.3444 28.3191 28.5352C28.694 29.5187 28.6178 30.4854 28.3089 31.4802C27.6015 33.7332 26.1245 35.4315 24.5427 37.0853C23.6661 38.0012 22.8829 39.0201 22.1113 40.0185C21.5225 40.7805 21.2162 41.6845 21.1983 42.6631C21.1987 42.8155 21.1525 42.9735 21.121 43.1727C20.9636 43.0869 20.8325 43.0218 20.6693 42.9272C20.6841 43.0064 20.6813 43.0592 20.6988 43.0856C21.4581 44.156 22.3939 44.8668 23.7989 44.6157C24.3166 44.5245 24.8086 44.6031 25.2261 45.1384C25.0343 45.2664 24.8513 45.3886 24.677 45.505C23.326 46.4068 21.9693 47.2999 20.6387 48.2135C20.3337 48.4172 20.1503 48.387 19.8646 48.1834C18.8559 47.4576 18.2307 46.4377 17.6577 45.3829C17.4472 44.9892 17.3906 44.4673 17.3982 44.0043C17.4061 42.4981 17.4984 40.9865 17.5005 39.4715C17.5075 38.78 17.3632 38.0877 17.2946 37.3958C17.2364 37.4219 17.184 37.4187 17.1229 37.4213ZM48.3832 5.9575C48.3747 6.03951 48.3749 6.1157 48.3663 6.19771C48.8177 6.32884 49.2663 6.51271 49.7292 6.5853C49.898 6.61249 50.1069 6.35857 50.2987 6.23056C50.1295 6.08908 49.963 5.81867 49.7971 5.81493C49.3228 5.8009 48.8487 5.90116 48.3832 5.9575Z" fill="#20113D"/>
    <path d="M30.5746 36.4963C30.4989 36.496 30.3271 36.4834 30.0623 36.4821C30.8264 37.1426 31.6385 37.1729 32.4504 37.0888C33.4164 36.9908 34.3765 36.8078 35.3425 36.7098C35.9129 36.6597 36.4633 36.7884 36.8227 37.3883C36.6978 37.4845 36.5874 37.5837 36.4654 37.6652C35.0182 38.6317 33.5769 39.6071 32.1094 40.5618C31.9089 40.6958 31.5917 40.7294 31.3501 40.6872C30.625 40.5606 29.9173 40.3842 29.2009 40.2136C28.3622 40.0102 27.8488 39.5386 27.7797 38.6176C27.7586 38.3008 27.5861 37.9833 27.4224 37.6981C27.098 37.1511 26.7301 36.6333 26.362 36.0774C27.7124 34.8318 28.2818 33.1661 28.9066 31.5271C29.1814 30.8217 29.6227 30.3488 30.3263 30.0443C30.9012 30.7039 31.3802 31.3894 31.17 32.3443C31.0807 32.7221 30.9855 33.0911 30.9312 33.4837C30.8083 34.4566 30.6972 35.4472 30.5746 36.4963Z" fill="#20113D"/>
    <path d="M35.0467 27.6946C36.8126 27.3424 38.436 27.0218 40.1147 26.6897C40.3691 28.4034 39.8843 30.1399 40.6507 31.7534C40.389 31.8519 40.1534 31.9329 39.915 32.0285C39.918 32.0901 39.9298 32.1459 39.9329 32.2075C40.3054 32.2004 40.6926 32.2346 41.0563 32.1571C41.6498 32.028 42.211 31.7932 42.8015 31.6406C43.4705 31.4737 43.9893 31.7636 44.4651 32.3113C43.8984 32.6898 43.3492 33.0566 42.8086 33.4176C41.8235 34.0756 40.85 34.7513 39.8473 35.3828C39.6671 35.4904 39.3528 35.5094 39.146 35.4439C38.3159 35.1966 37.7555 34.5781 37.4423 33.82C36.6138 31.8279 35.8609 29.7981 35.0467 27.6946Z" fill="#20113D"/>
  </symbol>

  <symbol id="gorilla-icon" viewBox="0 0 58 50">
    <path fill-rule="evenodd" clip-rule="evenodd" d="M40.2759 22.042L40.2777 22.0458L40.2783 22.0472C40.7975 23.1573 41.3167 24.2674 41.8548 25.4266C41.7185 25.5383 41.5805 25.6536 41.4404 25.7707L41.4401 25.7709L41.4401 25.7709C41.1234 26.0355 40.7963 26.3088 40.4555 26.568C40.0768 26.8544 39.7011 27.1449 39.3257 27.4352C38.3986 28.1523 37.4727 28.8684 36.5036 29.5197C33.015 31.8713 29.1671 32.8257 25.0261 32.4518C24.0145 32.3632 22.9462 31.9992 22.5207 31.6942C22.7662 29.9256 23.0022 28.2061 23.2382 26.4867L23.2392 26.4794C23.2109 26.4696 23.1802 26.4622 23.1494 26.4548C23.1187 26.4475 23.088 26.4401 23.0596 26.4302C22.9675 26.6248 22.8761 26.8194 22.7849 27.0138C22.5578 27.4975 22.3313 27.9798 22.0953 28.4571C21.4822 29.7178 21.0711 31.0567 20.659 32.3985L20.6589 32.399C20.5436 32.7744 20.4283 33.15 20.3084 33.5242C19.5521 35.8561 18.2001 37.6468 15.9027 38.5225C15.7893 38.5717 15.6947 38.7685 15.6474 38.9161C15.5548 39.222 15.4725 39.5316 15.3902 39.8409C15.2793 40.2577 15.1686 40.674 15.0329 41.0807C14.5129 42.6549 13.5391 43.875 12.225 44.8097C11.6388 45.2229 11.0527 45.646 10.4948 46.0986C10.0127 46.4823 10.0316 46.6496 10.5043 47.0333C10.5968 47.1084 10.6898 47.1824 10.7826 47.2562L10.7827 47.2563C11.0788 47.4919 11.3725 47.7255 11.6388 47.9877C12.0737 48.4206 12.2723 48.9716 12.1115 49.6013C12.0737 49.7489 11.8563 49.9457 11.7239 49.9457C8.6229 49.9654 5.51243 49.9654 2.41142 49.9555C2.29797 49.9555 2.13725 49.9162 2.07107 49.8375C1.97607 49.7171 1.87881 49.5972 1.78127 49.477C1.43228 49.0468 1.07965 48.6121 0.813648 48.1353C0.64347 47.8303 0.624561 47.3187 0.738013 46.9743C1.83471 43.5011 3.2434 40.205 5.90006 37.6763C6.01351 37.5681 6.07969 37.332 6.08915 37.1647C6.15533 34.6656 6.43896 32.1861 7.05348 29.7755C7.58293 27.6896 8.15018 25.6037 9.15234 23.6851C10.9959 20.1824 13.3784 17.2602 17.0372 15.6859C20.1855 14.338 23.2582 14.5446 26.2552 16.1385C26.6666 16.3593 27.0387 16.662 27.4012 16.9568L27.4013 16.9569C27.5718 17.0956 27.7403 17.2326 27.9097 17.3586C27.5693 16.5911 26.9737 15.9614 26.3308 15.3809C26.9362 15.1412 27.5439 14.9092 28.1506 14.6777L28.1506 14.6777C30.831 13.6545 33.4904 12.6393 35.8418 11.0025C35.9454 11.3775 36.0471 11.7563 36.1494 12.1372L36.1496 12.138C36.2808 12.6263 36.4128 13.1181 36.5509 13.6099C36.5887 13.7279 36.6643 13.8362 36.7589 13.9346C36.5698 12.7145 36.5698 11.4945 37.0142 10.3728C37.4301 9.31018 37.9312 8.23772 38.5741 7.31284C40.153 5.06953 42.0533 3.12138 44.1711 1.41922C44.2562 1.35034 44.3412 1.28147 44.4358 1.2126C44.5876 1.11174 44.7381 1.00427 44.8888 0.896577C45.6206 0.373933 46.3598 -0.154052 47.3004 0.0417429C48.8509 0.356594 50.1462 1.20276 51.0349 2.59007C51.2901 2.98364 51.5832 3.25913 51.9898 3.40672C53.0487 3.79044 53.8428 4.44966 54.3533 5.52213C54.5384 5.91397 54.8053 6.26098 55.0727 6.60855C55.2014 6.7759 55.3302 6.94338 55.45 7.11606C55.6959 7.47027 55.7431 7.76544 55.469 8.17869C55.2421 8.52306 55.1286 8.98549 55.0624 9.40858C54.9773 9.91037 55.1664 10.2351 55.6769 10.5106C57.01 11.219 57.7853 12.8031 57.0478 14.4068C56.9249 14.6725 56.8115 14.9382 56.7075 15.2136C56.2158 16.5321 55.2799 16.9945 53.9941 16.5321C53.9728 16.5247 53.951 16.5173 53.9291 16.51C53.8635 16.4878 53.7979 16.4657 53.7483 16.4435C53.5119 16.7879 53.2756 17.1224 53.0203 17.4766C52.984 17.4305 52.9529 17.3969 52.9292 17.3712L52.9291 17.3712C52.8971 17.3366 52.8785 17.3165 52.8785 17.2995C52.9541 16.4534 52.4625 15.9516 51.9141 15.4399C49.352 13.0392 46.2132 13.4721 44.0671 14.8594C44.3083 14.8086 44.5472 14.753 44.7855 14.6976L44.7857 14.6975C45.2385 14.5923 45.6887 14.4876 46.147 14.4167C48.8699 14.0231 51.2334 15.2924 52.4908 17.8308C53.3606 19.5822 53.9752 21.4123 53.8239 23.4391L53.8222 23.4628C53.7944 23.8598 53.764 24.2922 53.6065 24.6395C53.0581 25.8596 53.2283 27.0895 53.5308 28.2997L53.5866 28.5252C53.8705 29.6751 54.1619 30.8555 54.7032 31.8713C56.7926 35.7774 56.9627 39.9984 56.8115 44.2784C56.7453 46.1183 56.178 47.7516 54.7221 48.9421C53.909 49.6112 53.0392 50.0736 51.952 49.9851C51.4509 49.9457 50.9403 49.9359 50.4393 49.9851C49.4938 50.0933 48.8415 49.6013 48.2837 48.9126C47.6786 48.1747 47.4044 47.3187 47.5746 46.3544C47.6219 46.0986 47.8015 45.7838 48.0095 45.6657C48.2708 45.5212 48.4615 45.7217 48.6548 45.9248L48.6551 45.925C48.6856 45.957 48.7161 45.9891 48.7469 46.0199C49.0383 46.3134 49.4232 46.529 49.79 46.7346L49.7964 46.7381C50.1178 46.9152 50.288 46.7677 50.3258 46.3938C50.3636 45.951 50.2313 45.5771 49.9098 45.2918C48.1041 43.688 46.9695 41.5923 45.9485 39.4179C45.1638 37.7354 44.6627 35.9742 44.4831 34.1047C44.3507 32.6977 44.5871 31.3301 44.8423 29.9625C44.9652 29.3426 45.0881 28.7129 45.1259 28.0734C45.211 26.8041 44.7856 25.7317 43.7362 25.0528C42.4409 24.2164 41.2875 23.2128 40.361 21.9534C40.3704 21.983 40.3232 22.0125 40.2759 22.042ZM43.0453 26.5104C43.5936 26.9729 43.7921 27.5042 43.6787 28.1634C43.6088 28.5897 43.5318 29.0148 43.4548 29.44L43.4548 29.4401C43.3132 30.2218 43.1716 31.0038 43.0736 31.794C42.7522 34.4604 43.3478 36.9792 44.3405 39.4095C44.5201 39.8522 44.539 40.2065 44.3499 40.6492C43.4896 42.6761 42.5536 44.6537 41.3435 46.4936C39.7741 48.8747 37.5807 49.9767 34.8389 49.9767C34.6769 49.9767 34.5158 49.9794 34.3549 49.982H34.3548C33.9807 49.9882 33.6085 49.9944 33.2317 49.9669C33.0426 49.957 32.8063 49.8291 32.7023 49.6717C31.823 48.4319 31.9743 45.8639 32.9859 44.7324C33.0993 44.6045 33.3546 44.4865 33.4964 44.5357C33.6042 44.5757 33.6807 44.7463 33.7513 44.9039C33.7674 44.9398 33.7832 44.9751 33.799 45.0079C33.838 45.0891 33.8663 45.1786 33.8945 45.2676C33.9415 45.4158 33.988 45.5626 34.0826 45.6672C34.2528 45.8738 34.5458 46.169 34.7349 46.1296C34.9335 46.0902 35.132 45.7262 35.2171 45.4704C35.3022 45.2244 35.2738 44.9194 35.2265 44.6636C35.158 44.3033 35.0721 43.9457 34.9863 43.5888L34.9863 43.5887C34.8355 42.961 34.6852 42.3355 34.6309 41.702C34.3757 38.8585 34.6215 36.0642 35.8033 33.4371C36.0774 32.837 36.3894 32.2269 36.796 31.7153C37.2214 31.1643 37.7508 30.6822 38.2897 30.2493C38.8427 29.7971 39.4125 29.3695 39.983 28.9413L39.9832 28.9412C40.3686 28.652 40.7543 28.3625 41.1355 28.065C41.5604 27.7284 41.9811 27.3829 42.4089 27.0316L42.4093 27.0313L42.4098 27.0309C42.6194 26.8587 42.8308 26.6851 43.0453 26.5104ZM22.7258 33.5039C22.4831 33.4291 22.2391 33.354 21.9907 33.278C21.9065 33.4679 21.8249 33.6605 21.743 33.8539C21.6042 34.1814 21.4646 34.5109 21.31 34.8326C20.374 36.8004 19.145 38.5124 17.2447 39.6144C17.0934 39.7029 16.9894 39.9292 16.9327 40.1162C16.4789 41.7003 15.9116 43.2155 14.8622 44.4946C14.7865 44.593 14.7204 44.7701 14.7487 44.8783C15.0796 45.9704 15.42 47.0626 15.7887 48.135C15.8549 48.322 16.0534 48.4991 16.2331 48.6073C16.9043 49.0009 17.5756 49.3846 18.2657 49.7487C18.4926 49.8667 18.7573 49.975 19.0032 49.975C21.0024 49.9897 22.9963 49.9879 24.9929 49.986C25.6589 49.9854 26.3252 49.9848 26.992 49.9848H27.5782C27.5146 49.8492 27.4628 49.7168 27.4138 49.5916C27.3169 49.3444 27.2309 49.1248 27.0866 48.9615C26.7273 48.5581 26.3208 48.1744 25.8859 47.8694C25.4775 47.5835 25.0341 47.3461 24.5923 47.1096C24.4717 47.045 24.3511 46.9805 24.2314 46.915C23.7587 46.6493 23.5507 46.2558 23.5885 45.7048C23.5948 45.5736 23.6095 45.4424 23.6242 45.3112C23.6316 45.2456 23.6389 45.18 23.6452 45.1144C23.6741 44.8166 23.7101 44.5177 23.7462 44.2186C23.8279 43.5395 23.9099 42.8586 23.9099 42.1824C23.9099 40.7754 23.3049 39.5652 22.4445 38.5026C23.9383 37.3416 24.2314 35.6984 24.3732 34.0061C23.8049 33.8362 23.2683 33.6709 22.7258 33.5039Z"/>
  </symbol>

  <symbol id="eagle-icon" viewBox="0 0 54 51">
    <path d="M16.3259 45.5594C19.9379 44.7336 22.2215 42.4154 24.535 39.9523C24.2216 39.8654 23.9828 39.793 23.744 39.735C20.5648 38.9526 17.6393 37.6197 14.9527 35.8086C13.2959 34.693 11.9377 33.2876 10.9078 31.5779C10.7735 31.3606 10.669 31.1288 10.5645 30.897C10.5346 30.839 10.5346 30.7666 10.5048 30.5637C11.5197 30.868 12.475 31.1578 13.4153 31.4476C13.4452 31.4186 13.4601 31.4041 13.4899 31.3751C13.3855 31.2882 13.2959 31.2012 13.1914 31.1288C11.9675 30.3609 10.7735 29.564 9.53461 28.8396C8.11666 27.9993 6.62408 27.2748 5.2509 26.4055C3.41503 25.232 2.11648 23.5803 1.17615 21.6678C1.13138 21.5808 1.11645 21.4939 1.10153 21.407C1.0866 21.3635 1.10153 21.3056 1.10153 21.1752C2.62396 21.8127 4.04191 22.711 5.80316 22.5516C2.34037 20.6246 0.191053 17.9297 0.340311 13.8729C1.81797 15.4522 3.26577 17.017 4.71357 18.5817C4.74343 18.5527 4.7882 18.5093 4.81805 18.4803C4.22102 17.3502 3.51951 16.2491 3.07173 15.061C2.62396 13.8729 2.32544 12.5835 2.17619 11.3229C2.02693 10.0624 2.14633 8.77296 2.14633 7.49797C2.22096 7.48348 2.29559 7.48348 2.3553 7.46899C3.05681 9.00478 3.75832 10.5406 4.45983 12.0908C4.53446 12.0908 4.60909 12.0764 4.68372 12.0764C4.65387 9.28006 4.96731 6.54173 6.29571 4.03521C6.35541 4.03521 6.41511 4.03521 6.47482 4.0497C6.47482 4.6727 6.50467 5.28122 6.47482 5.90423C6.31063 8.96131 7.51963 11.5693 9.32565 13.9454C10.5346 15.5246 12.0272 16.8431 13.6392 18.0312C15.7587 19.5959 18.1319 20.7405 20.5051 21.8706C22.7141 22.9138 24.6545 24.3337 26.4754 25.9274C27.5799 26.8981 28.7292 27.8109 29.8636 28.7527C30.177 29.0135 30.4904 29.3032 30.8487 29.622C31.4308 28.318 31.9681 27.101 32.5054 25.8695C33.804 22.9428 35.7593 20.4797 38.1772 18.3499C40.1027 16.6547 42.058 15.0175 43.9834 13.3369C46.5954 11.0477 48.2223 8.20791 48.7447 4.81759C48.9387 3.61504 48.8492 2.35453 48.894 1.1375C48.894 0.934656 48.894 0.717328 48.9686 0.5C49.9089 2.58635 50.1776 4.78861 50.4015 7.0778C51.3269 5.25224 52.2374 3.42669 53.1628 1.58664C53.2374 1.60113 53.312 1.61562 53.3717 1.63011C53.2672 3.49913 53.2523 5.36815 53.0284 7.22269C52.8045 9.06273 52.3717 10.8738 52.0284 12.6269C52.4911 11.9315 53.0284 11.1346 53.6553 10.2218C53.7001 12.0039 53.6404 13.6121 52.8642 15.1334C52.103 16.6402 50.8791 17.7704 49.5507 18.886C50.2821 19.0309 50.8642 18.7846 51.4314 18.5093C51.9836 18.2485 52.4911 17.9297 53.1329 17.5675C53.0732 17.8428 53.0434 18.0311 52.9836 18.205C52.1777 20.3203 50.9239 22.1459 49.0432 23.4933C47.8939 24.3337 46.67 25.0726 45.5357 25.9129C44.8192 26.449 44.3118 26.7822 44.2819 27.5212C44.7595 27.3618 45.2222 27.2169 45.7745 27.043C44.8491 30.1146 42.4012 31.9981 40.2669 34.2004C40.4758 34.2873 40.64 34.3453 40.8042 34.4177C41.8639 34.8379 42.7595 35.4754 43.3714 36.4316C43.8341 37.1416 43.9386 37.895 43.7446 38.7208C43.6849 38.9671 43.8341 39.3003 43.9983 39.5177C44.5058 40.2711 44.5804 41.039 44.1326 41.8214C43.6998 42.5892 42.9834 42.966 42.043 43.0239C42.7893 41.7199 42.7595 41.4302 41.7445 40.7347C41.64 41.2708 41.5355 41.7779 41.4311 42.314C40.7594 41.7779 40.1773 41.1404 39.4459 40.7637C38.6996 40.387 37.819 40.2856 36.9235 40.0393C36.9683 40.2276 36.9683 40.3435 37.013 40.4449C37.6698 42.0532 38.2817 43.6904 39.028 45.2696C39.2967 45.8492 39.834 46.3418 40.3266 46.7764C40.7893 47.1821 41.1176 47.0372 41.2967 46.4432C41.4161 46.023 41.4609 45.5884 41.5355 45.1682C41.6102 44.7915 41.8191 44.6321 42.0878 44.748C42.1475 45.0958 42.2221 45.3711 42.2371 45.6463C42.252 45.9361 42.252 46.2404 42.1923 46.5156C42.1326 46.762 41.9684 46.9938 41.849 47.2256C41.8788 47.269 41.9236 47.298 41.9535 47.3415C42.3565 47.0807 42.7744 46.8199 43.1625 46.5446C43.3565 46.3997 43.5058 46.2114 43.6849 46.052C44.3864 45.429 44.7297 45.4725 45.2222 46.2983C44.9536 46.2693 44.7147 46.2259 44.461 46.1969C44.4162 47.2691 43.252 47.2546 42.7744 47.979C43.3416 47.95 43.8491 47.9065 44.3565 47.9065C45.1327 47.9065 45.4461 48.2543 45.2969 49.0222C45.073 48.5006 44.6998 48.573 44.3416 48.7179C43.5804 49.0222 42.8042 48.9207 42.0281 48.8193C41.1773 48.7034 40.4161 48.8193 39.6847 49.3119C39.2071 49.6452 38.7146 49.9639 38.028 49.819C37.8787 49.7901 37.6101 50.2682 37.416 50.5C37.1026 50.0943 37.1175 49.7031 37.6399 49.3844C37.9683 49.1815 38.3563 49.0801 38.7146 48.9352C38.9385 48.8483 39.1773 48.7759 39.3713 48.631C39.8042 48.3122 39.8042 48.1094 39.3862 47.7906C38.3563 46.9793 37.3265 46.1824 36.2966 45.371C36.207 45.2986 36.1026 45.2407 36.013 45.2262C34.6547 45.1103 33.9085 44.2409 33.3413 43.1833C33.2219 42.9515 33.1323 42.6327 32.8039 42.8356C32.6248 42.9515 32.4308 43.2992 32.4905 43.4731C32.804 44.6176 33.4905 45.5159 34.5503 46.0955C35.013 46.023 35.1025 44.9219 35.7593 45.5884C35.6996 45.8347 35.6548 45.9796 35.6249 46.1245C35.804 46.1534 35.9981 46.2259 36.1772 46.2114C36.4757 46.2114 36.7742 46.1534 37.0727 46.1245C37.0877 46.1824 37.1026 46.2549 37.1175 46.3128C36.9086 46.4142 36.6996 46.5156 36.416 46.6605C37.8489 46.733 37.8489 46.733 37.9086 47.4719C37.4459 47.0372 36.9981 47.385 36.5503 47.4429C35.5354 47.5588 34.8339 48.0225 34.4607 48.9932C34.3413 49.2974 34.0129 49.5148 33.7144 49.848C33.7293 49.8915 33.7741 50.0364 33.804 50.1957C33.1622 49.9784 33.0129 49.6742 33.3264 49.1236C33.5652 48.7034 33.8786 48.3122 34.1622 47.9065C34.4159 47.5443 34.4159 47.2401 33.9383 47.0372C33.1622 46.704 32.5054 46.1679 31.595 46.081C31.2517 46.052 30.9531 45.6029 30.6099 45.3131C30.4457 45.5739 30.2218 45.8782 30.0427 46.2259C29.5203 47.2546 28.6396 47.8776 27.5351 48.1673C24.0574 49.0946 20.7737 48.573 17.714 46.733C17.2065 46.4432 16.8333 45.9941 16.3259 45.5594Z" />
  </symbol>

  <symbol id="panda-icon" viewBox="0 0 68 50">
    <path fill-rule="evenodd" clip-rule="evenodd" d="M24.5399 31.0436C21.8031 31.8715 19.0451 31.7442 16.2659 29.8972C16.0526 30.1655 15.8341 30.4356 15.6133 30.7084L15.6128 30.709L15.6127 30.7091L15.6127 30.7091L15.6126 30.7093C15.065 31.386 14.5036 32.0796 13.9746 32.8056C13.5821 33.3682 13.2162 33.952 12.8502 34.5358L12.8502 34.5359C12.4842 35.1197 12.1182 35.7035 11.7258 36.2661C10.8559 37.5186 10.5377 38.8773 10.6225 40.3846C10.7286 42.3165 9.96486 43.2931 8.07668 43.6328C4.19423 44.3333 0.714882 41.4461 0.693667 37.5186C0.693667 37.1351 0.686827 36.7516 0.680012 36.3695C0.669851 35.7997 0.659745 35.233 0.672443 34.6739C0.708116 33.1746 1.35858 31.8705 2.00612 30.5722L2.00619 30.572L2.0062 30.572C2.12887 30.3261 2.25143 30.0803 2.36969 29.8335C2.67579 29.1984 2.98475 28.5642 3.29374 27.93L3.29375 27.93C4.44105 25.5751 5.58875 23.2193 6.59159 20.8109C8.06572 17.2812 10.2802 14.2454 12.5025 11.1987L12.5026 11.1987C12.9669 10.5622 13.4315 9.92526 13.8897 9.28324C13.9118 9.2557 13.9352 9.22815 13.959 9.20024L13.959 9.20023L13.959 9.20022L13.959 9.20021L13.959 9.20021C14.0268 9.12056 14.0972 9.03789 14.1443 8.94357C16.6265 4.42167 21.0394 3.36019 25.5795 2.46854C26.6991 2.25233 27.8097 1.98152 28.9195 1.71088C30.2071 1.39689 31.4939 1.08312 32.7928 0.855085C35.1689 0.430493 37.6087 0.0908195 40.0273 0.00590102C42.8914 -0.100247 45.31 1.23722 47.4527 3.08419C44.2068 1.42828 40.7274 0.855091 37.1208 0.940009C36.2085 0.961239 35.2962 1.04616 34.384 1.15231C33.0686 1.30091 32.517 2.27747 32.1563 3.40264C31.2228 6.26864 31.4138 9.09218 32.4109 11.9369C32.6512 12.6204 32.8011 13.3416 32.9503 14.0601L32.9504 14.0603C33.0515 14.5468 33.1523 15.0321 33.2808 15.5035C33.4445 16.0907 33.6043 16.6798 33.7643 17.2691L33.7644 17.2696L33.7645 17.2701L33.7647 17.2706L33.7647 17.2707C34.3505 19.4298 34.9374 21.5927 35.7205 23.6769C36.0388 24.5473 37.0996 25.3965 38.0118 25.7362C41.5973 27.0312 45.2675 27.7318 49.0651 26.4368C53.8386 24.8021 56.2996 19.707 54.4963 14.9728C53.9185 13.4731 53.2331 12.0195 52.5448 10.5597L52.5447 10.5596L52.5447 10.5595L52.5438 10.5578C52.4237 10.303 52.3036 10.0481 52.1838 9.79276C52.0739 9.55713 51.8479 9.368 51.626 9.18235C51.548 9.11711 51.4706 9.05229 51.3988 8.98604C51.1245 8.72561 50.8385 8.4722 50.5517 8.21804L50.5517 8.21798L50.5516 8.21793L50.5515 8.21784C49.9733 7.70546 49.3917 7.19008 48.8954 6.60832C48.1953 5.78036 48.2165 4.74011 48.8318 3.84847C49.4258 2.97805 50.3805 2.76576 51.3776 2.9356C52.9264 3.19035 53.9235 4.14568 54.4327 5.56806C54.9206 6.94799 54.4539 8.13684 53.2446 9.1771C54.8358 10.4933 55.3661 12.3828 55.8329 14.251C56.0096 14.9583 56.1046 15.6884 56.1997 16.4202V16.4203C56.3102 17.2698 56.421 18.1216 56.6603 18.9427C57.06 20.3025 57.5395 21.6438 58.0196 22.9866L58.0197 22.9867L58.0197 22.9869L58.0198 22.987C58.4316 24.1388 58.8437 25.2916 59.2062 26.458C59.6769 27.9515 60.1103 29.4574 60.5434 30.9622L60.5434 30.9623L60.5435 30.9626L60.5436 30.9628L60.5437 30.9631C60.9109 32.2389 61.2778 33.5139 61.6672 34.78C61.8842 35.4858 62.1619 36.1743 62.4394 36.862C62.5959 37.25 62.7523 37.6377 62.8977 38.0281C63.3626 39.2629 64.4155 39.8188 65.459 40.3699C65.6535 40.4726 65.8476 40.5751 66.0376 40.6818C67.0135 41.2338 67.5227 41.9556 67.2681 43.102C67.0347 44.1847 66.3346 44.8641 65.0404 44.8216C62.3885 44.7155 59.7578 44.4607 57.127 44.1847C56.6815 44.1423 56.2148 43.6752 55.8965 43.2931C54.1144 41.1489 52.3535 38.9835 50.6139 36.8181C49.4046 35.3107 48.5135 33.6548 48.0468 31.7654C47.8484 30.988 47.444 30.2492 47.0442 29.519L47.0442 29.519L47.0442 29.519L47.0442 29.5189L47.0441 29.5188C46.9308 29.3119 46.8179 29.1056 46.7102 28.8994C46.6041 28.6871 46.3071 28.496 46.0737 28.4536L45.9062 28.4204C44.5621 28.153 43.2251 27.887 42.064 29.0692C41.7684 29.3861 41.2838 29.5559 40.8609 29.7039L40.8547 29.7061C40.1122 29.9609 39.7727 30.4279 40.0485 31.1497C41.0272 33.7755 40.9533 36.4582 40.8792 39.1471C40.8425 40.4801 40.8057 41.8146 40.8971 43.1445C40.9349 43.654 41.0061 44.1635 41.0773 44.673L41.0774 44.6731C41.1664 45.31 41.2555 45.9468 41.279 46.5837C41.3002 47.072 41.0881 47.7725 40.7486 48.0273C37.927 50.1502 34.7658 50.5112 31.5199 49.3435C29.9075 48.7491 28.8255 47.5815 28.5709 45.5859C28.0829 41.4461 27.4253 37.3276 26.5766 33.2515C26.271 31.7225 25.5356 30.2623 24.8191 28.84L24.8191 28.8399L24.8191 28.8399L24.8188 28.8394C24.7396 28.682 24.6606 28.5251 24.5824 28.3687C22.5457 24.3138 21.9729 20.1103 22.6942 15.6097C23.2882 11.8733 24.0944 8.30668 26.5766 5.35577C27.0886 4.75305 27.6968 4.23589 28.3025 3.72079L28.3026 3.72074L28.3026 3.72072L28.3026 3.72071C28.5503 3.5101 28.7975 3.29983 29.0376 3.08419C29.0739 3.05306 29.1128 3.02319 29.152 2.99304C29.2732 2.89985 29.3978 2.80397 29.462 2.6596C26.1948 2.70206 23.2458 3.61494 20.3393 4.97363C17.6165 6.22313 16.0562 8.45147 14.4763 10.7077C14.1235 11.2116 13.7697 11.7169 13.4018 12.2129C13.2533 12.4252 13.2533 12.7861 13.2745 13.0833C13.586 16.0553 14.7312 18.7627 15.8739 21.4646L15.9476 21.6389C16.175 22.1545 16.294 22.7242 16.4131 23.2939C16.4607 23.5218 16.5083 23.7497 16.5629 23.9741C16.6902 24.5473 16.8175 25.1418 16.8599 25.7362C16.8685 25.857 16.878 25.9787 16.8874 26.1008C16.9476 26.8799 17.0095 27.6799 16.8811 28.4324C16.6265 29.7698 16.7326 30.1732 18.1116 30.3855C18.5499 30.4293 18.9918 30.4732 19.4356 30.5172L19.4459 30.5183L19.452 30.5189L19.4554 30.5192C21.1537 30.6877 22.8799 30.859 24.5399 31.0436ZM34.7662 11.1117C33.5357 10.6022 33.0266 9.3921 32.8568 7.96971C32.6659 6.41995 34.0661 4.48806 35.6997 3.91486C36.9939 3.46904 38.8184 4.19085 39.5397 5.46462C39.9641 6.22889 40.1338 6.84455 39.2003 7.50267C38.1441 8.24248 37.1631 9.07893 36.1045 9.98147L36.1044 9.98152L36.1044 9.98157L36.104 9.98188L36.1037 9.98217L36.1036 9.98222C35.674 10.3485 35.2316 10.7257 34.7662 11.1117ZM38.7968 17.6269C38.4149 19.304 39.4969 20.6415 40.8123 20.5353C40.9313 20.1555 41.0452 19.7834 41.1575 19.4165C41.3653 18.7376 41.5678 18.0761 41.7882 17.4146C41.8465 17.2491 41.9271 17.0882 42.0076 16.9276C42.1026 16.7378 42.1974 16.5486 42.2549 16.3531C42.4246 15.7374 42.6156 14.9307 41.8306 14.7396C41.2578 14.6123 40.3455 14.8033 39.9849 15.2067C39.412 15.8436 38.9877 16.7564 38.7968 17.6269ZM46.6374 14.8497L46.6374 14.8497C46.84 14.5299 47.0349 14.2222 47.3031 14.1029C47.5789 13.9755 48.173 14.2303 48.47 14.485C48.5354 14.5414 48.6012 14.5978 48.6671 14.6543C49.37 15.2572 50.0872 15.8722 50.5915 16.6292C50.8673 17.075 50.7612 17.903 50.5703 18.455C50.4218 18.8583 49.8702 19.2829 49.4459 19.3678C49.1701 19.4103 48.7246 18.9008 48.4487 18.5611C47.982 17.9879 47.5789 17.3935 47.1758 16.7566C46.9704 16.4776 46.8157 16.1581 46.6346 15.7839L46.6345 15.7837C46.5538 15.6169 46.4678 15.4391 46.3696 15.2493C46.4643 15.1229 46.5516 14.9853 46.6374 14.8497ZM47.4827 22.8773L47.4945 22.8701C47.4885 22.8339 47.4807 22.7959 47.4727 22.7567C47.4526 22.6581 47.4309 22.5518 47.4309 22.4455C47.3177 22.4172 47.2046 22.3795 47.0914 22.3417C46.8651 22.2662 46.6388 22.1908 46.4125 22.1908C45.5427 22.1908 44.6729 22.212 43.8242 22.3181C43.4848 22.3606 43.0817 22.5941 42.9332 22.8489C42.8483 22.9975 43.1241 23.4645 43.3575 23.6768C43.4814 23.8008 43.6633 23.8452 43.8481 23.8902C43.9796 23.9223 44.1127 23.9547 44.2273 24.0165C44.4607 24.1439 44.885 24.3986 44.8638 24.5048C44.7789 24.802 44.5668 25.0992 44.3122 25.3115C44.1889 25.4211 44.0126 25.46 43.7947 25.5081C43.675 25.5344 43.5428 25.5636 43.3999 25.6087C44.2235 25.5547 44.9869 25.5007 45.7503 25.4466C46.1865 25.4157 46.6228 25.3849 47.0702 25.354C46.8197 25.2426 46.5327 25.2088 46.2564 25.1763C45.6901 25.1097 45.1685 25.0483 45.0972 24.335C45.9625 23.8069 46.7229 23.342 47.4827 22.8773Z"/>
  </symbol>

  <symbol id="lemur-icon" viewBox="0 0 30 51">
  <path fill-rule="evenodd" clip-rule="evenodd" d="M14.4937 0.507177C15.2779 0.463276 16.0259 0.624247 16.7956 0.894972C16.7702 0.967555 16.7466 1.03889 16.7234 1.10898C16.6672 1.27913 16.6134 1.44193 16.5414 1.59739C16.32 2.0765 16.095 2.5556 15.8699 3.03471L15.8699 3.03476L15.8699 3.0348L15.8699 3.03484L15.8699 3.03489L15.8698 3.03493L15.8698 3.03498L15.8698 3.03502L15.8698 3.03507L15.8698 3.03511L15.8697 3.03515C15.6446 3.51441 15.4195 3.99367 15.198 4.47293L15.1974 4.47428C15.0782 4.73279 15.0201 4.85867 14.9225 4.91174C14.8298 4.96211 14.7015 4.9469 14.4514 4.91725L14.4065 4.91194C14.1524 4.88267 13.9999 4.77292 13.9636 4.52415C13.9481 4.41929 13.9286 4.31391 13.9091 4.20843C13.855 3.91646 13.8008 3.62369 13.8329 3.33881C13.913 2.63491 14.0429 1.93555 14.1725 1.23716L14.1726 1.23691L14.1726 1.23667L14.1726 1.23646L14.1727 1.23624L14.1727 1.23603L14.1728 1.23581L14.1728 1.23559L14.1728 1.23537L14.1729 1.23514L14.1731 1.23385C14.2077 1.04768 14.2422 0.861571 14.2758 0.675466C14.2903 0.609614 14.4138 0.514494 14.4937 0.507177ZM9.12045 2.16109C9.28234 2.40215 9.44201 2.64141 9.60054 2.87899C10.082 3.60051 10.5531 4.30648 11.0448 5.00004C11.2263 5.26345 11.4732 5.49759 11.8726 5.33662C12.4826 5.10248 12.6351 4.94151 12.4535 4.29762C12.2363 3.51498 12.3711 2.76239 12.5064 2.00717L12.5065 2.00676C12.5204 1.92898 12.5344 1.85117 12.5479 1.7733C12.5988 1.49526 12.5915 1.18795 12.5262 0.909905C12.4971 0.778201 12.2357 0.580645 12.134 0.602596C11.023 0.880637 10.0499 1.4294 9.12045 2.16109ZM6.74778 8.45816C7.25653 8.83243 7.76676 9.2078 8.28603 9.58772C8.11176 10.4292 7.66154 10.9048 6.78288 10.9999C5.57019 11.1243 4.5463 10.6267 3.62407 9.8804C3.57324 9.83649 3.55146 9.67552 3.58776 9.60235C3.64173 9.48138 3.69543 9.36015 3.74917 9.23886C3.9847 8.70724 4.22079 8.17438 4.48094 7.65606C4.55078 7.5103 4.66517 7.3887 4.77467 7.2723C4.82457 7.21926 4.87345 7.16729 4.91664 7.11461C5.53349 7.56483 6.13957 8.01071 6.74778 8.45816ZM7.07249 12.9298C5.70005 12.5859 4.37117 12.2494 2.94063 11.8835C2.90998 12.0533 2.87575 12.2286 2.84076 12.4077L2.84075 12.4077C2.77625 12.7379 2.70921 13.0811 2.65742 13.4274C2.6077 13.7553 2.57486 14.086 2.54139 14.4232C2.52109 14.6276 2.50056 14.8345 2.47588 15.0444C3.62322 15.6224 4.7996 15.7834 5.96146 15.1103C6.78929 14.642 7.11606 13.8664 7.07249 12.9298ZM2.52687 16.8089C2.30903 17.965 2.4833 19.0552 2.88996 20.1162C2.92626 20.204 3.02067 20.2991 3.10781 20.3284C4.82155 20.9064 6.75314 19.7503 7.02182 18.1918C7.05813 17.9796 7.07266 17.7528 7.05813 17.5406C6.97099 16.6114 6.79671 16.4797 5.89627 16.6114L5.63686 16.6493H5.63684H5.63682H5.6368H5.63679H5.63677H5.63675H5.63674H5.63672H5.6367H5.63668H5.63667H5.63665H5.63663H5.63662H5.6366H5.63658H5.63656C5.01865 16.74 4.40006 16.8308 3.77588 16.8821C3.5017 16.9022 3.22067 16.874 2.93046 16.8449L2.93033 16.8449L2.9303 16.8449L2.93025 16.8449L2.93022 16.8449C2.79776 16.8316 2.66339 16.8181 2.52687 16.8089ZM7.40654 23.671C7.98746 22.4271 7.80593 21.5345 6.82561 20.7589C5.80898 21.5345 4.6326 21.8198 3.36907 21.8637C3.28193 21.8637 3.1367 21.9881 3.11492 22.0832C2.91885 23.0125 3.19479 23.8393 3.71037 24.6002C3.75164 24.6603 3.83059 24.6912 3.91974 24.7261L3.91976 24.7261C3.97175 24.7465 4.02722 24.7682 4.08071 24.7978L4.04758 24.8203L4.00671 24.8483L4.00668 24.8483C3.94683 24.8895 3.88853 24.9297 3.82655 24.9661C2.50494 25.7636 1.43748 26.8099 0.805716 28.2367C-0.02211 30.1172 -0.319834 32.0562 0.428114 34.0537C0.562735 34.4127 0.686562 34.7783 0.810188 35.1433C0.913292 35.4477 1.01626 35.7517 1.12523 36.0512C1.48831 37.0609 1.51736 38.0999 1.22689 39.1096C0.37002 42.0583 1.17606 44.7656 2.31614 47.4362C2.41618 47.6595 2.57952 47.8614 2.73695 48.0561L2.74457 48.0655C2.96242 48.3362 3.24562 48.424 3.58692 48.3069C3.92822 48.1826 4.17511 47.9557 4.16059 47.5972C4.14606 47.1362 4.08797 46.6753 3.97905 46.229C3.8956 45.8743 3.794 45.5234 3.6924 45.1724L3.69239 45.1724L3.69238 45.1723L3.69237 45.1723L3.69236 45.1722L3.69234 45.1722L3.69233 45.1721L3.69232 45.1721L3.69231 45.1721L3.6923 45.172L3.69229 45.172L3.69228 45.1719L3.69226 45.1719L3.69225 45.1718L3.69224 45.1718L3.69223 45.1717L3.69222 45.1717L3.69221 45.1716C3.59055 44.8204 3.48889 44.4692 3.40538 44.1144C3.17301 43.112 3.47073 42.2852 4.28404 41.6632C4.31884 41.6375 4.3529 41.611 4.3867 41.5848C4.45867 41.5289 4.52943 41.4739 4.60355 41.4291C5.83076 40.7193 6.58597 39.6072 7.21047 38.3706C7.38487 38.0192 7.61055 37.6918 7.83591 37.365C7.93897 37.2155 8.04197 37.0661 8.13996 36.9146L8.2271 36.9585C8.27067 37.1633 8.31515 37.3682 8.35963 37.5731C8.49306 38.1877 8.62649 38.8023 8.73541 39.4169C9.22194 42.0876 10.7905 44.0997 12.6059 45.9729C12.7849 46.1605 13.0205 46.2983 13.2429 46.4284L13.2521 46.4338C13.5571 46.6168 13.8694 46.6168 14.1598 46.3753C14.4576 46.1265 14.5665 45.8119 14.4358 45.4607C14.3051 45.1241 14.1381 44.7948 13.9347 44.4949C13.7239 44.188 13.4962 43.8937 13.2687 43.5997L13.2686 43.5996L13.2683 43.5993C13.0729 43.3467 12.8775 43.0942 12.693 42.8339C11.8289 41.6193 11.7926 40.7632 12.6422 39.5486C13.3175 38.5755 13.7822 37.5145 14.1962 36.3658C14.3116 36.4199 14.425 36.47 14.5361 36.519L14.5365 36.5192C14.7258 36.6028 14.9083 36.6834 15.0821 36.7755C16.8684 37.756 17.9649 39.2999 18.6185 41.1949C18.8839 41.9508 19.1127 42.7205 19.3412 43.4894L19.3415 43.4905C19.4005 43.6888 19.4594 43.8871 19.5189 44.0851C19.7295 44.7875 20.0708 45.4095 20.5356 45.9655C20.7124 46.1758 20.889 46.386 21.0655 46.5961L21.0668 46.5977C21.8976 47.5865 22.7268 48.5736 23.5709 49.5508C23.8106 49.8289 24.101 50.0923 24.4133 50.2898C24.9797 50.6484 25.5316 50.5386 26.0544 50.0337C26.432 49.6679 26.4974 49.2142 26.1561 48.6362C25.9603 48.3033 25.7078 48.0015 25.4594 47.7047L25.4592 47.7045L25.4588 47.704C25.4126 47.6488 25.3665 47.5937 25.321 47.5387C25.1757 47.3631 25.0087 47.1948 24.8344 47.0484C23.3603 45.7826 22.9972 44.1071 23.0626 42.2705C23.0732 41.9622 23.1105 41.6538 23.1469 41.3538C23.1606 41.241 23.1741 41.1293 23.186 41.0193C23.4135 40.9756 23.6383 40.9318 23.8581 40.889C24.2629 40.8101 24.6511 40.7345 25.0087 40.6681C25.1441 40.9687 25.2708 41.2758 25.3977 41.5836L25.3978 41.5837C25.6725 42.2497 25.9483 42.9185 26.3158 43.529C26.8564 44.429 27.4969 45.2667 28.1372 46.1042C28.2882 46.3016 28.4391 46.499 28.5887 46.6972C28.8429 47.0338 29.1842 47.3045 29.6489 47.1948C29.8958 47.1362 30.0846 46.4631 29.9611 45.9875C29.845 45.5412 29.707 45.0875 29.4819 44.6924C28.4798 42.9144 28.0949 40.9608 27.8262 38.9779C27.6883 37.9682 27.0928 37.5145 26.0907 37.7121C24.2172 38.0853 22.3364 38.2682 20.4266 38.0999C20.2959 38.0853 20.1652 38.056 20.0345 38.0267C18.6838 37.7048 18.1465 36.4463 18.8436 35.2244C18.8654 35.1805 18.8872 35.1366 18.9235 35.1C19.5727 34.4404 19.9246 33.6211 20.2779 32.7984C20.4028 32.5076 20.5278 32.2165 20.6663 31.9318C20.9422 31.3757 21.465 30.9074 21.9661 30.4977C22.5833 30.0001 23.3385 29.7513 24.1155 29.583C24.2245 29.5611 24.3842 29.4587 24.406 29.3709C24.4278 29.2684 24.3406 29.0782 24.2535 29.0343C24.1981 29.0079 24.1423 28.9808 24.0862 28.9535C23.7532 28.7916 23.4096 28.6245 23.0553 28.5806C22.4744 28.5075 21.8717 28.5221 21.2835 28.5806C20.63 28.6465 20.049 28.4416 19.5044 28.1782C18.9235 27.9002 18.3716 27.5197 17.8488 27.1392C16.4182 26.0929 14.9731 25.0758 13.332 24.3807C11.5747 23.6271 9.75204 23.3783 7.86402 23.6564C7.72605 23.6417 7.57355 23.6491 7.40654 23.671ZM15.3719 22.2624C14.791 22.6283 14.1592 22.7893 13.4766 22.7893C12.8231 22.7673 12.1986 22.6356 11.6685 22.2259C11.0803 21.7795 10.8552 21.121 11.1965 20.4844C11.4143 20.0838 11.7179 19.7326 12.0216 19.3814C12.1228 19.2644 12.224 19.1473 12.322 19.0284C12.3728 18.9699 12.4963 18.9479 12.5834 18.9552C14.1592 19.1089 15.3792 20.1991 15.6624 21.5747C15.735 21.9112 15.6406 22.0942 15.3719 22.2624ZM7.48604 3.44272C8.31386 4.07197 9.47573 5.50608 10.2672 6.85971L10.1856 6.96378L10.1856 6.96383C9.99827 7.20251 9.82137 7.42795 9.65001 7.66456C9.49751 7.87675 9.31597 7.92797 9.05455 7.84749C7.71115 7.41579 6.78892 6.44996 5.81586 5.41096C6.38227 4.74513 6.93415 4.09392 7.48604 3.44272ZM18.8145 7.93573C19.4129 7.4164 20.1417 7.32562 20.8749 7.23431C21.0404 7.2137 21.2061 7.19306 21.3706 7.16746C21.7482 7.10892 22.1258 6.99917 22.4889 6.8821C22.5688 6.85283 22.685 6.7065 22.6704 6.63333C22.5615 5.90896 22.3364 5.22849 21.7337 4.76021C21.632 4.67972 21.465 4.6285 21.3488 4.64314C20.4629 4.78216 19.6423 5.08947 18.9089 5.60896C18.8218 5.67482 18.7346 5.74067 18.6548 5.81384C17.8995 6.51626 17.9504 7.3138 18.8145 7.93573ZM19.0979 19.9406C18.3644 18.6236 15.1693 17.3651 14.3415 18.0748C14.3415 18.0968 14.3415 18.1333 14.356 18.1407C15.3436 19.004 16.0552 20.0943 16.7451 21.1991C16.9121 21.4698 17.0791 21.4845 17.3405 21.3967C17.9505 21.1918 18.6476 20.6211 19.0979 19.9406ZM23.9769 34.1417C23.868 34.7051 23.6429 34.8734 23.0619 34.8881C22.9599 34.8689 22.8578 34.8537 22.7563 34.8386C22.5471 34.8074 22.3401 34.7765 22.1397 34.7125C21.4862 34.5149 21.203 34.0539 21.3264 33.3735C21.37 33.1247 21.4644 32.8832 21.5733 32.6564C21.9654 31.8589 22.6117 31.2955 23.3524 30.8418C23.6066 30.6882 23.9115 30.5931 24.202 30.5418C24.3363 30.5158 24.4852 30.5527 24.6331 30.5893C24.6933 30.6042 24.7532 30.6191 24.812 30.6296C24.7997 30.6833 24.7903 30.74 24.7808 30.7969C24.7568 30.9415 24.7325 31.088 24.6595 31.193C24.2383 31.8003 24.1149 32.4808 24.0786 33.1979C24.064 33.5125 24.035 33.8344 23.9769 34.1417ZM22.6335 33.0735C22.314 33.0735 22.0308 33.3588 22.038 33.6808C22.0401 33.7738 22.0636 33.8616 22.1037 33.9396C22.0641 33.862 22.0409 33.7748 22.0388 33.6823C22.0388 33.3604 22.3148 33.075 22.6343 33.075C22.8599 33.075 23.0579 33.2041 23.1564 33.3948C23.0581 33.2032 22.8597 33.0735 22.6335 33.0735ZM19.0325 9.9669L19.8761 10.0371L19.8763 10.0371L19.8766 10.0371L19.877 10.0371C20.9827 10.1289 22.0663 10.2189 23.1498 10.3181C23.4694 10.3474 23.571 10.223 23.6001 9.923C23.6582 9.27911 23.4403 8.77425 22.9029 8.42304C21.9952 7.83769 20.3759 7.94012 19.5481 8.64254C19.1269 8.99375 18.9454 9.44008 19.0325 9.9669ZM18.379 1.54493C19.2504 2.02052 20.0782 2.50344 20.6591 3.33025C19.323 4.12047 18.0304 4.88874 16.7379 5.66433C16.4982 5.28385 16.4692 5.02776 16.6435 4.49363C16.9748 3.46487 17.602 2.60739 18.2379 1.73808L18.379 1.54493ZM16.4039 16.7444C17.3096 17.0547 18.0374 17.6155 18.7793 18.187L18.7793 18.187C19.227 18.532 19.6798 18.8808 20.1799 19.181C20.2484 19.0723 20.3166 18.9646 20.3843 18.8575L20.3844 18.8575C20.6544 18.4307 20.9179 18.0143 21.1675 17.5932C21.2038 17.5347 21.182 17.3664 21.1239 17.3225C20.1799 16.5761 19.1633 15.9762 17.9216 15.9176C17.3043 15.903 16.7524 16.064 16.4039 16.7444ZM23.3097 11.8865C23.2952 12.4859 23.2803 13.0999 22.8958 13.6042C22.7449 13.5542 22.5957 13.5037 22.4475 13.4535L22.4474 13.4535L22.4473 13.4534C22.0534 13.32 21.6668 13.1891 21.2764 13.0774C20.5866 12.8945 19.8967 12.7262 19.1996 12.5726C18.9382 12.514 18.8801 12.3823 18.9164 12.1335C19.0108 11.4458 19.4828 11.0214 20.2816 10.9921C21.3055 10.9482 22.2495 11.2921 23.1717 11.7019C23.2371 11.7311 23.3097 11.8262 23.3097 11.8848L23.3097 11.8865ZM20.7452 34.1562C20.5902 34.3471 20.4515 34.515 20.3221 34.6715C20.1789 34.8449 20.0471 35.0044 19.9174 35.1659C19.8729 35.2215 19.8265 35.2758 19.7802 35.3299L19.7802 35.33C19.668 35.4612 19.5567 35.5916 19.4744 35.7366C19.2058 36.2049 19.3365 36.7171 19.8303 36.9293C20.2224 37.0975 20.6581 37.2073 21.0793 37.2512C22.2048 37.3756 23.3158 37.2658 24.4051 36.9366C24.3325 36.4244 24.1001 36.1903 23.5918 36.139C23.3381 36.1162 23.0815 36.1076 22.8257 36.0991H22.8257H22.8256H22.8256C22.6714 36.0939 22.5175 36.0888 22.3646 36.0805C21.377 36.022 21.2172 35.8683 21.0212 34.9025C20.9871 34.7406 20.9203 34.5819 20.8494 34.4133C20.8146 34.3305 20.7787 34.2453 20.7452 34.1562ZM21.6611 16.2672C20.4992 15.6599 19.3156 15.1331 18.0012 14.8697C18.19 13.9331 18.8073 13.516 19.7803 13.6404C20.7606 13.7575 21.632 14.1672 22.4308 14.7306C22.5107 14.7892 22.6123 14.9209 22.5906 14.9794C22.4308 15.3892 22.2638 15.8062 22.0532 16.194C22.0096 16.2672 21.7555 16.3184 21.6611 16.2672ZM24.8492 32.6061C24.8492 33.367 24.9726 33.4914 25.5535 33.3817C25.7932 33.3378 26.0473 33.2353 26.2434 33.089C26.9986 32.5256 27.2092 31.1646 26.6863 30.411C26.5629 30.2354 26.454 30.1622 26.2507 30.3086C25.4083 30.9305 24.8855 31.7134 24.8492 32.6061Z" />
  </symbol>

  <symbol id="alligator-icon" viewBox="0 0 59 48">
    <path d="M20.0622 40.6874C20.2864 41.1792 20.6308 40.9454 20.9912 40.9374C21.5678 40.9212 21.9201 40.5342 22.4407 40.3085C21.9842 40.1714 21.5998 40.0505 21.1914 39.9215C21.0632 40.1875 20.9271 40.4778 20.7829 40.7761C20.7429 40.7761 20.6949 40.7761 20.6548 40.7761C20.6068 40.5584 20.5427 40.3407 20.5267 40.123C20.5107 39.865 20.4226 39.736 20.1503 39.728C19.9981 39.7199 19.846 39.6231 19.6378 39.5425C19.4856 39.9457 19.3094 40.3972 19.1012 40.9535C18.7488 40.3407 18.8129 39.7683 18.8449 39.2119C18.3804 38.9459 18.3804 38.9459 18.0921 39.8247C18.0361 39.6876 17.94 39.5506 17.932 39.4135C17.8999 39.0749 17.7638 38.8652 17.4034 38.7685C17.1151 38.6798 17.019 38.7121 17.011 39.0265C17.003 39.3974 16.963 39.7763 16.8989 40.1472C16.8749 40.3165 16.7708 40.4778 16.7067 40.6471C16.6666 40.6471 16.6266 40.6471 16.5946 40.6471C16.5465 40.4939 16.4905 40.3407 16.4424 40.1875C16.3063 39.728 16.1861 39.2603 16.042 38.8007C15.9859 38.6153 15.8978 38.5105 15.6576 38.5911C15.4974 38.6476 15.3052 38.5992 15.0409 38.5992C14.9769 38.7927 14.8808 39.0588 14.7847 39.3248C14.7446 39.3329 14.6966 39.3409 14.6565 39.349C14.5765 39.1152 14.5044 38.8814 14.4083 38.6476C14.3522 38.5105 14.2721 38.3895 14.2001 38.2605C14.112 38.3895 14.0319 38.5266 13.9438 38.6556C13.9118 38.7121 13.8797 38.7685 13.7996 38.9217C13.6395 38.6072 13.5193 38.3573 13.3832 38.0912C12.2941 38.0509 12.6544 39.0265 12.4062 39.5748C12.3661 39.5828 12.3261 39.5909 12.2781 39.599C12.19 39.349 12.0618 39.1152 12.0298 38.8572C11.9897 38.5508 12.0538 38.2444 12.0458 37.93C12.0458 37.8252 11.9737 37.7284 11.9337 37.6236C11.8216 37.68 11.6534 37.7042 11.6134 37.7848C11.5173 38.0267 11.4692 38.2928 11.317 38.575C11.261 38.3492 11.1809 38.1235 11.1649 37.8977C11.1168 37.2043 11.0768 36.519 11.0528 35.8256C11.0207 35.0838 11.277 34.7291 11.9817 34.463C12.246 34.3582 12.4863 34.1728 12.7586 34.0679C12.9828 33.9793 13.2631 33.8664 13.4793 33.9228C14.0559 34.0599 14.6245 34.2453 15.1691 34.4791C15.6175 34.6726 16.05 34.7855 16.5465 34.7936C17.011 34.8016 17.4755 34.971 17.924 35.1322C18.2523 35.2532 18.5246 35.3419 18.8689 35.1564C19.0451 35.0677 19.3494 35.1 19.5497 35.1887C20.0302 35.3902 20.5027 35.3499 20.9992 35.2773C21.776 35.1725 22.5528 35.1322 23.3376 35.0435C23.5699 35.0193 23.8101 34.9629 24.0183 34.8662C24.3627 34.7049 24.699 34.5114 25.0194 34.3018C25.2196 34.1647 25.3798 33.9551 25.572 33.8019C26.0204 33.431 26.525 33.3907 27.0775 33.5439C27.2697 33.6003 27.502 33.5116 27.7182 33.4955C27.8463 33.4874 27.9825 33.4713 28.1106 33.4632C28.511 33.431 28.9115 33.3987 29.3199 33.3746C29.6642 33.3504 30.0166 33.2617 30.3369 33.3342C31.0337 33.4955 31.5142 33.1004 32.0027 32.7537C32.0988 32.6892 32.1228 32.3022 32.0267 32.2055C31.5462 31.7136 31.5863 31.1815 31.7704 30.601C31.9787 29.9398 32.339 29.4158 33.0037 29.1658C33.5723 28.9481 33.7485 28.6176 33.6124 28.029C33.5964 27.9725 33.5563 27.9161 33.5083 27.8758C33.26 27.65 33.0198 27.4082 32.7475 27.2147C32.6514 27.1502 32.4672 27.1663 32.339 27.2147C32.259 27.2388 32.1548 27.392 32.1709 27.4727C32.267 28.0612 31.8025 28.4321 31.6263 28.9239C31.4501 28.545 31.1858 28.1902 31.2819 27.7549C31.346 27.4565 31.2099 27.2953 30.9696 27.2711C30.8174 27.255 30.6333 27.392 30.4891 27.4888C30.3369 27.5936 30.1848 27.7145 30.0647 27.8597C29.9445 28.0048 29.8564 28.1822 29.7203 28.3999C29.5361 28.037 29.6722 27.6904 29.7043 27.3678C29.7283 27.1502 29.8725 26.9405 29.9125 26.7228C29.9365 26.5858 29.9045 26.4084 29.8244 26.2955C29.7844 26.2391 29.5842 26.2794 29.464 26.3116C29.2078 26.3842 28.9595 26.4729 28.6792 26.5696C28.5271 26.0939 28.8634 25.8037 29.1357 25.5215C29.416 25.2312 29.7603 24.9974 30.1608 24.6749C30.0086 24.5943 29.8885 24.5378 29.6883 24.433C30.0967 24.3201 30.361 24.2073 30.6413 24.1831C31.0177 24.1589 31.1057 23.9089 31.1538 23.6348C31.346 22.4496 31.8425 21.4095 32.5393 20.4581C32.7875 20.1195 33.1399 19.8615 33.4282 19.5551C33.5643 19.418 33.7245 19.2568 33.7725 19.0875C34.1249 17.7571 35.0459 16.9589 36.2071 16.3623C36.2391 16.3461 36.2792 16.33 36.2952 16.3219C36.1831 15.2819 36.079 14.2498 35.9668 13.2017C35.3021 12.8469 34.9898 12.1213 34.5413 11.5085C34.5013 11.4521 34.4613 11.3795 34.4052 11.3473C33.8446 10.9925 33.1959 10.7184 32.7314 10.2669C32.283 9.83148 31.7464 9.69441 31.2259 9.46866C30.7854 9.27515 30.345 9.08165 29.9205 8.85589C29.7363 8.75914 29.5922 8.58176 29.392 8.40438C29.1197 8.32375 28.7673 8.24313 28.439 8.11413C27.8223 7.87224 27.2377 7.56586 26.6131 7.36429C26.1406 7.2111 25.62 7.19498 25.1315 7.0821C24.9313 7.03372 24.7471 6.91278 24.5629 6.81603C24.4988 6.78378 24.4348 6.72734 24.3707 6.72734C23.698 6.70315 22.9692 6.83215 22.3526 6.63059C21.5518 6.36452 20.7029 6.61446 19.9581 6.25971C19.0531 5.82432 18.1162 6.0662 17.1952 6.0017C17.0911 5.99364 16.971 6.03395 16.8749 6.0017C15.7857 5.62275 14.7606 6.09845 13.7035 6.20327C13.4313 6.22745 13.151 6.21133 12.8707 6.21939C12.7666 6.21939 12.6625 6.23552 12.5583 6.25164C11.6854 6.40483 10.8045 6.55802 9.9396 6.72734C9.65931 6.78378 9.37902 6.8886 9.10673 6.98535C8.45004 7.2111 7.76132 7.34011 7.12065 7.65455C6.03151 8.19475 4.84627 8.54145 3.78917 9.16228C3.10045 9.56541 2.36368 9.87986 1.6269 10.1943C1.4267 10.283 1.16242 10.2185 0.930176 10.2185C1.01827 10.0089 1.06632 9.75085 1.21848 9.60572C1.40267 9.42028 1.68296 9.32353 1.9072 9.17034C2.01131 9.09777 2.13143 8.99296 2.17147 8.88008C2.28359 8.5737 2.45978 8.38019 2.80414 8.34794C2.91625 8.33988 3.04439 8.227 3.10845 8.13025C3.31667 7.78355 3.55692 7.52555 3.90929 7.58199C4.13353 7.38042 4.31772 7.22723 4.4939 7.06597C4.582 6.98535 4.65407 6.89666 4.73416 6.80797C4.78221 6.75153 4.81424 6.64671 4.87831 6.62253C5.40686 6.38065 5.93541 6.15489 6.46397 5.91301C6.57608 5.85657 6.69621 5.79207 6.79231 5.7195C7.23277 5.38893 7.77734 5.21962 8.13772 4.73585C8.23382 4.59879 8.61021 4.64717 8.85847 4.65523C9.10673 4.65523 9.25088 4.5746 9.41906 4.37303C9.58723 4.17147 9.87554 4.01021 10.1318 3.95377C10.4922 3.88121 10.8606 4.01827 11.1489 3.58289C11.269 3.39745 11.7095 3.43776 12.0058 3.34907C12.1579 3.30876 12.3902 3.26038 12.4382 3.1475C12.6544 2.67987 13.0388 2.74437 13.4232 2.72824C13.6555 2.72018 13.8957 2.63955 14.128 2.59118C14.4083 2.53474 14.6966 2.40574 14.9689 2.42186C15.2411 2.44605 15.4334 2.42186 15.6015 2.20417C15.6416 2.15579 15.7056 2.09129 15.7617 2.09129C16.4344 2.0671 16.995 1.4624 17.7318 1.70428C17.8118 1.72847 17.924 1.6559 18.012 1.62365C18.6287 1.3979 19.2373 1.15602 19.854 0.954449C20.0222 0.89801 20.2384 0.914137 20.4066 0.970576C20.831 1.10764 21.1754 0.970575 21.5598 0.801259C21.776 0.704506 22.0563 0.74482 22.3045 0.728695C22.5448 0.712569 22.785 0.712569 23.0253 0.696443C23.0733 0.696443 23.1294 0.640005 23.1775 0.648068C24.0343 0.881886 24.9633 0.212681 25.7962 0.873822C25.8923 0.954449 26.1325 0.914137 26.2767 0.849635C26.613 0.704507 26.9014 0.591628 27.2377 0.881886C27.3338 0.962512 27.558 0.889948 27.7262 0.898011C27.9745 0.914136 28.2147 0.930262 28.463 0.962512C28.7833 1.00283 29.1037 1.10764 29.424 1.09958C29.7844 1.09152 30.0887 1.12377 30.377 1.38177C30.5452 1.5269 30.8335 1.58334 31.0737 1.5914C31.4821 1.59947 31.8665 1.57528 32.1629 1.9381C32.1949 1.97841 32.283 1.98648 32.347 1.97841C32.4111 1.97841 32.5072 1.91391 32.5393 1.9381C32.9317 2.26867 33.4442 2.18804 33.8847 2.35736C34.173 2.47024 34.4212 2.6718 34.6935 2.81693C34.7656 2.85725 34.8777 2.84918 34.9578 2.81693C35.3102 2.69599 35.5264 2.85725 35.6625 3.16363C35.7907 3.45389 35.9748 3.59095 36.3032 3.59901C36.4634 3.60708 36.7196 3.71189 36.7677 3.84089C36.9038 4.18759 37.1361 4.25209 37.4564 4.25209C37.5525 4.25209 37.6566 4.31659 37.7527 4.36497C39.0981 5.09868 40.4435 5.84044 41.7969 6.55802C43.2705 7.34011 44.3917 8.51726 45.4808 9.74279C46.0974 10.4442 46.6901 11.1618 47.3708 11.831C47.2346 11.5891 47.0664 11.3634 46.9623 11.1054C46.8823 10.9199 46.7942 10.6458 46.8742 10.5087C47.1786 9.98467 47.5149 9.46866 47.8993 9.00102C48.1155 8.74302 48.4439 8.69464 48.7722 8.92846C48.8924 9.01715 49.0685 9.04133 49.2287 9.06552C49.5651 9.12196 49.8774 9.15421 50.0135 9.56541C50.0536 9.68635 50.3499 9.74279 50.5341 9.7831C51.0706 9.88792 51.2388 9.97661 51.399 10.3072C50.7663 10.5894 50.7984 10.5974 51.2708 11.1779C52.1598 12.2664 52.7364 13.4839 52.4961 14.9513C52.4801 15.0642 52.5442 15.2093 52.6002 15.3222C52.9927 16.0559 52.9846 16.7896 52.5682 17.5072C52.2399 18.0716 51.9676 18.6924 51.2388 18.8939C52.5442 22.4818 52.5362 26.0456 51.2708 29.6415C52.2078 29.8028 52.9206 30.2946 53.5292 30.9638C53.5452 30.9799 53.5693 31.0041 53.5853 31.0202C54.0738 31.754 54.5943 32.4473 55.195 33.1004C55.4913 33.4229 55.5874 34.0034 55.6434 34.4791C55.7155 35.1403 55.6674 35.8176 55.6594 36.4948C55.6514 37.0834 55.8677 37.4059 56.3962 37.6155C56.7005 37.7365 56.9968 37.8897 57.2771 38.059C57.4293 38.1557 57.5414 38.3331 57.6695 38.4702C57.6455 38.4944 57.6295 38.5266 57.6055 38.5508C57.4453 38.5186 57.2932 38.4944 57.0849 38.4541C57.117 38.5427 57.117 38.6072 57.149 38.6234C57.4934 38.8814 57.8377 39.1394 58.1981 39.3813C58.6866 39.7199 58.5665 40.2682 58.6946 40.76C58.2782 40.3891 57.6055 40.7277 57.2851 40.1633C57.2451 40.0908 56.9808 40.1553 56.9168 40.1553C56.8687 40.8729 56.8287 41.5421 56.7886 42.2032C56.7566 42.2193 56.7165 42.2274 56.6845 42.2435C56.4282 41.9371 56.172 41.6308 55.9077 41.3324C55.8276 41.2437 55.6514 41.1228 55.6274 41.147C55.5153 41.2357 55.3711 41.3889 55.3872 41.4937C55.4272 41.7678 55.3071 41.8726 55.0908 41.9855C54.9627 42.05 54.8746 42.2032 54.7705 42.3241C54.6744 42.437 54.5863 42.566 54.4982 42.687C54.4582 42.6789 54.4181 42.6708 54.3781 42.6628C54.3621 42.4612 54.3301 42.2596 54.322 42.0581C54.306 41.7678 54.322 41.4776 54.306 41.1873C54.282 40.8648 54.0898 40.7842 53.8255 40.9696C53.7615 41.018 53.6974 41.0825 53.6253 41.0906C53.1768 41.1712 53.1688 41.1712 53.0167 41.6308C52.9366 41.4856 52.8725 41.405 52.8405 41.3002C52.7124 40.8245 52.9526 40.1633 53.369 39.9053C53.8095 39.6393 53.8736 38.8652 53.6493 38.5024C53.3931 38.0912 53.1208 37.6962 52.8725 37.285C52.6643 36.9383 52.5682 36.5916 52.7043 36.1723C52.8485 35.7208 52.6002 35.3741 52.1438 35.2532C51.423 35.0677 50.7103 34.8742 49.9575 34.6646C49.6612 35.0919 49.3408 35.5676 49.0045 36.0352C48.1476 37.2205 47.0825 38.1154 45.6249 38.4621C45.4407 38.5024 45.2726 38.6476 45.1124 38.7524C44.8561 38.9217 44.6159 39.1313 44.2715 38.9943C44.2155 38.9701 44.0953 39.0346 44.0473 39.0991C42.0372 41.792 39.5065 43.8238 36.3432 44.9606C35.0138 45.4363 33.6444 45.783 32.267 46.0975C31.7865 46.2023 31.2419 46.0572 30.7374 45.9685C30.5291 45.9282 30.377 45.8879 30.1928 46.033C28.5831 47.2666 26.8133 47.5085 24.8912 46.9602C23.69 46.6216 22.4887 46.5571 21.2635 46.9118C20.8951 47.0166 20.4706 46.9199 20.0782 46.9199C19.3174 46.9118 18.5646 46.9038 17.8038 46.9038C17.7398 46.9038 17.6677 46.9199 17.6116 46.9521C16.6746 47.5165 15.6576 47.1618 14.6726 47.2021C13.5674 47.2505 12.7025 46.6458 11.9177 45.9282C11.6214 45.654 11.6614 45.267 12.0058 44.9042C12.0858 44.8155 12.1419 44.6785 12.1579 44.5575C12.214 44.1705 12.246 43.7754 12.2861 43.3804C12.3421 43.3723 12.3982 43.3642 12.4462 43.3562C12.5023 43.5255 12.5423 43.7109 12.6224 43.8722C12.7105 44.0415 12.8386 44.3237 12.9588 44.3318C13.191 44.3398 13.4953 44.2673 13.4953 43.8883C13.4953 43.7432 13.5914 43.5981 13.7436 43.4287C13.8237 43.6061 13.8957 43.7835 13.9758 43.977C14.3122 43.719 14.6726 43.4932 14.9609 43.1949C15.097 43.0498 15.089 42.7676 15.145 42.5499C15.2331 42.2274 15.2412 41.8646 15.6416 41.5904C15.6816 42.1629 15.7136 42.6708 15.7537 43.1707C15.8097 43.1869 15.8578 43.203 15.9139 43.211C16.034 42.9853 16.1461 42.7515 16.3063 42.4451C16.4104 42.695 16.4824 42.8724 16.5625 43.0578C16.7067 43.0578 16.8428 43.0578 16.979 43.0578C17.0671 42.7998 17.1471 42.558 17.2673 42.1871C17.3794 42.4128 17.4114 42.5499 17.4915 42.6386C17.5796 42.7353 17.7157 42.8482 17.8359 42.8482C18.0361 42.8563 18.1882 42.7515 18.1802 42.5015C18.1722 42.3403 18.2123 42.171 18.2283 41.9452C18.4525 42.0823 18.6047 42.179 18.7648 42.2838C18.8529 42.1226 18.941 41.9694 19.0451 41.7839C19.7659 42.1629 19.3334 41.405 19.4616 41.2518C19.7178 41.2679 19.918 41.2841 20.1102 41.2921C20.0302 41.1228 20.0462 40.9051 20.0622 40.6874ZM34.3572 24.2234C34.3251 24.2153 34.2931 24.2073 34.2691 24.1911C33.8046 24.5217 33.3401 24.8603 32.8276 25.2232C32.9397 25.5457 33.0278 25.9004 33.1959 26.2149C33.3801 26.5696 33.6364 26.8841 33.5003 27.3275C33.4762 27.4162 33.5323 27.5372 33.5563 27.642C33.8206 26.489 34.0849 25.3602 34.3572 24.2234Z"/>
  </symbol>

  <symbol id="lion-icon" viewBox="0 0 53 47">
    <path d="M12.6769 43.4852C12.408 42.1008 12.3213 40.7251 12.5641 39.3494C12.9457 37.164 14.0297 35.379 15.7728 34.0469C16.64 33.3851 17.6373 32.8975 18.5739 32.3229C19.1896 31.9485 19.8487 31.6176 20.3777 31.1474C21.7739 29.8849 23.1094 28.5615 24.4709 27.2641C25.2774 26.4979 26.0753 25.723 26.9338 24.8958C26.3528 24.8523 25.8324 24.8436 25.3208 24.7652C24.8091 24.6869 24.2975 24.5563 23.9246 24.0338C24.1067 24.0251 24.2368 24.0164 24.3669 24.0164C25.737 23.9729 26.4308 23.2763 26.4568 21.9442C26.4742 21.2999 26.3181 20.6468 26.2314 20.0025C25.8411 17.2772 26.5175 14.8219 28.1132 12.6103C28.2173 12.4623 28.33 12.3055 28.4601 12.1227C28.0178 12.0705 27.6189 12.053 27.2373 11.966C26.8644 11.8789 26.5175 11.7222 26.1533 11.6003C26.162 11.5567 26.1707 11.5132 26.1793 11.4784C26.4655 11.4174 26.7517 11.3652 27.0292 11.2955C29.0758 10.7557 30.5761 9.56284 31.4866 7.61248C31.8682 6.80273 32.3018 6.0104 32.7875 5.2616C33.646 3.94684 34.8688 3.11097 36.3864 2.71045C36.5251 2.67563 36.6552 2.63209 36.8373 2.57985C36.5598 2.41442 36.291 2.30123 36.0915 2.10967C35.9181 1.94424 35.8314 1.69174 35.7533 1.40441C36.4731 1.6482 36.9847 1.30863 37.5051 1.00388C38.3896 0.481466 39.3089 0.0896522 40.3669 0.133187C41.6677 0.194136 42.6563 0.84716 43.4801 1.81363C43.5929 1.94424 43.6969 2.08355 43.8097 2.23157C44.5121 1.71786 45.2146 1.85717 45.865 2.29252C46.2292 2.53631 46.5154 2.90201 46.8623 3.18934C47.4173 3.65951 47.955 4.17322 48.5707 4.56504C48.8742 4.75659 49.3165 4.72177 49.7674 4.80884C50.0623 5.65341 49.6113 6.2629 48.111 6.84627C48.484 7.49929 48.8568 8.15232 49.2297 8.80534C49.5073 9.28422 49.7241 9.7544 49.5593 10.3639C49.4899 10.6425 49.672 11.0517 49.8541 11.3217C50.3224 12.0008 50.8514 12.6364 51.3544 13.2894C51.6146 13.6377 51.8661 13.9947 52.1176 14.343C52.3604 14.6825 52.3604 15.0134 52.1089 15.3443C51.788 15.7535 51.5105 16.215 51.1203 16.5458C50.5392 17.0334 50.0623 17.5907 49.5766 18.174C48.9002 18.9925 47.9289 19.0273 47.1311 18.3134C46.9316 18.1305 46.7148 17.9303 46.5934 17.6952C46.3159 17.1379 45.839 16.9289 45.2926 16.7809C44.7723 16.6416 44.252 16.5197 43.749 16.3456C43.3327 16.1976 42.9425 15.9973 42.5436 15.8145C42.4742 16.0844 42.5002 16.3108 42.8471 16.5458C43.3501 16.8767 43.8877 17.1466 44.4427 17.3991C44.6856 17.5123 44.8243 17.6168 44.911 17.8867C45.2926 19.1492 45.7002 20.403 46.1165 21.6481C46.5241 22.8758 46.5587 24.1383 46.5154 25.4183C46.4634 26.8549 46.2292 28.2393 45.7956 29.5976C45.4834 30.5641 45.1365 31.191 44.6942 31.6263C44.3994 30.8514 44.1132 30.0852 43.8184 29.3277C43.775 29.3364 43.7316 29.3451 43.6883 29.3538C43.7577 30.12 43.801 30.8862 43.9051 31.6525C44.382 35.0133 45.1105 38.3307 46.0818 41.5871C46.2119 42.0051 46.446 42.4143 46.6975 42.7713C47.1658 43.433 47.8422 43.6594 48.6314 43.5897C49.5419 43.5114 50.0189 43.79 50.227 44.6781C50.3831 45.3572 50.3918 46.0712 50.4699 46.8026C47.8075 46.8026 45.2753 46.8026 42.6476 46.8026C42.5696 45.7926 42.5175 44.7826 42.3961 43.7813C42.3354 43.2414 42.2574 42.6755 42.0146 42.2053C41.4769 41.1779 40.8438 40.2114 40.2281 39.2275C39.3522 37.8344 38.459 36.45 37.5831 35.0743C35.8053 35.8144 33.9582 36.5893 32.059 37.3729C31.9983 37.8692 31.9289 38.4787 31.8595 39.0795C31.7642 39.9328 31.3479 40.5945 30.6628 41.0647C29.9083 41.5784 29.1105 42.0138 28.33 42.4839C28.1219 42.6145 27.9137 42.7539 27.7056 42.8845C27.723 42.9367 27.7316 42.9889 27.749 43.0412C28.0091 43.076 28.278 43.1457 28.5295 43.1283C29.5354 43.0586 30.5414 42.9628 31.556 42.8757C31.7988 42.8583 32.0417 42.8322 32.2932 42.8322C34.5739 42.8235 36.0222 44.4691 35.7533 46.8113C35.6146 46.82 35.4758 46.8287 35.3371 46.8287C27.9831 46.8287 20.6205 46.8374 13.2666 46.8287C12.5208 46.8287 11.749 46.7939 11.0292 46.611C10.4395 46.463 9.78907 46.1757 9.36414 45.749C7.67308 44.0599 6.78853 42.0399 7.56034 39.628C8.03731 38.1479 8.69639 36.7199 9.32945 35.292C9.74571 34.3516 10.214 33.4374 10.3788 32.4013C10.6736 30.5815 9.88446 28.9359 8.34083 28.1697C7.34354 27.6734 5.68717 28.4396 5.4617 29.5105C5.43568 29.6411 5.50506 29.8675 5.60045 29.9285C6.35492 30.4074 6.71048 31.1213 6.87525 31.9659C7.10072 33.1413 6.87525 34.9959 6.39828 35.9189C6.15546 35.5445 5.91265 35.1701 5.66983 34.7957C5.79991 36.3629 5.17552 37.5819 4.22159 38.6703C4.16956 38.6529 4.1262 38.6529 4.11752 38.6442C3.7533 37.6603 3.07687 36.9289 2.29638 36.2584C1.91481 35.9276 1.61996 35.5009 1.28175 35.1091C1.17768 35.3094 1.03026 35.5967 0.882833 35.884C0.440557 35.5009 0.163049 34.6999 0.284458 33.9163C0.466572 32.7669 0.952209 31.7918 2.1056 31.2955C2.21833 31.2432 2.30506 31.0691 2.35709 30.9298C2.9121 29.467 3.74462 28.2132 5.11481 27.4034C6.22484 26.7417 7.45628 26.4892 8.73975 26.6895C9.9365 26.8723 10.6823 27.656 11.1072 28.7617C11.7143 30.3377 11.6796 31.9659 11.3067 33.5593C11.0379 34.726 10.6129 35.8579 10.162 36.9724C9.77173 37.9563 9.3468 38.9228 9.22539 39.9937C9.01726 42.0486 10.5435 43.642 12.6769 43.4852Z"/>
  </symbol>

  <symbol id="koala-icon" viewBox="0 0 44 55">
    <path fill-rule="evenodd" clip-rule="evenodd" d="M31.0579 23.3932C32.3131 21.8611 33.0329 20.1684 33.0637 18.2038C33.0679 17.99 33.2193 17.7792 33.37 17.5692L33.3701 17.5691C33.4415 17.4696 33.5128 17.3702 33.5682 17.2709C33.8614 16.7387 34.1736 16.2134 34.4859 15.6878C35.196 14.4929 35.907 13.2964 36.3984 12.0135C37.469 9.21492 36.823 7.49746 34.4973 5.71205C34.6449 3.84014 35.3833 2.55514 37.4382 2.18446C38.4108 2.01038 39.3543 1.67287 40.3847 1.30431C40.8534 1.13662 41.3402 0.962508 41.8558 0.794434C40.3115 5.47111 38.8472 9.90067 37.3152 14.5341L37.6729 14.4575L37.675 14.457C39.6684 14.0302 41.4922 13.6396 43.3324 13.2491C43.8 14.0831 43.437 14.5217 42.7295 14.9233L42.3071 15.1613L42.3071 15.1613C40.4963 16.1814 38.6805 17.2043 36.9337 18.3335C36.3492 18.7104 35.8447 19.3899 35.5801 20.0386C35.1455 21.1144 34.7922 22.2234 34.4296 23.3615L34.4294 23.3621C34.2736 23.8511 34.1161 24.3456 33.9497 24.845L31.0579 23.3932ZM36.4045 23.1469C38.2072 24.4937 38.964 27.3911 38.1396 29.6028C37.4197 31.5241 35.7523 32.4385 33.2667 32.1543C32.5518 32.0712 31.8484 31.9118 31.1453 31.7525L31.1453 31.7525L31.1452 31.7525L31.1452 31.7525C30.6986 31.6513 30.2521 31.5501 29.8027 31.4685C27.2433 30.9928 25.0529 31.3512 23.564 32.5003C23.9085 32.5435 24.2039 32.5806 24.653 32.6362C24.2684 33.3631 24.0728 34.1509 23.8832 34.9144C23.6087 36.0196 23.3468 37.074 22.5426 37.8194C23.001 38.1412 23.4904 38.4579 23.9911 38.7819C25.1435 39.5277 26.3553 40.3119 27.3848 41.2852C29.7781 43.5463 29.6305 46.9257 27.2802 49.4277C26.5751 49.178 25.8689 48.9283 25.162 48.6783L25.1602 48.6776C22.4749 47.728 19.7781 46.7743 17.0853 45.8013C16.6387 45.639 16.2127 45.4177 15.787 45.1965C15.5968 45.0977 15.4067 44.999 15.2149 44.9055C12.4277 43.5649 10.9819 41.3161 10.7358 38.2457C10.422 34.3598 11.1787 30.616 12.0709 26.9092C12.1317 26.8975 12.1818 26.8822 12.2236 26.8694C12.2919 26.8486 12.338 26.8345 12.3723 26.8536C18.4142 29.9797 23.9762 28.5649 29.2367 24.9447C30.1288 24.3331 30.8056 24.3022 31.6608 24.7532C32.1654 25.0188 32.676 25.2721 33.1929 25.5069C34.6756 26.1802 35.3463 25.9146 35.9431 24.4072C36.0422 24.1545 36.1342 23.8971 36.228 23.635L36.2282 23.6343C36.2857 23.4736 36.3438 23.3112 36.4045 23.1469ZM30.1993 36.3123C30.5946 35.1093 31.0061 33.8574 31.4457 32.5172C30.9879 32.5024 30.5442 32.4866 30.1111 32.4711L30.1101 32.4711L30.1093 32.471C28.733 32.4219 27.464 32.3766 26.1914 32.3813C25.9207 32.3813 25.5085 32.7149 25.41 32.9867C25.0102 34.1136 24.6506 35.2539 24.304 36.353C24.1813 36.7422 24.0602 37.1263 23.9395 37.5028L25.1533 38.3928L25.1537 38.3931C26.331 39.2566 27.477 40.0971 28.6709 40.9686C29.1702 39.4432 29.6696 37.924 30.1976 36.3174L30.1982 36.3154L30.1993 36.3123ZM17.9038 54.7085C18.6791 52.3979 19.3989 50.2542 20.1619 47.9869C22.063 48.5862 23.8596 49.1545 25.7792 49.7662C25.6753 50.0883 25.5737 50.4053 25.4735 50.7181C25.0934 51.9051 24.7326 53.0315 24.3333 54.1463C24.2472 54.381 23.8965 54.6776 23.6627 54.6838C22.2451 54.7169 20.8203 54.7138 19.3138 54.7105C18.8522 54.7095 18.3829 54.7085 17.9038 54.7085ZM9.44763 15.4518L9.44766 15.4519C10.011 16.3225 10.5581 17.1681 10.9512 18.0807C11.6772 19.7796 11.991 21.6947 10.5636 23.1527C9.09928 24.6416 7.27809 23.9806 5.6538 23.2639C4.70014 22.8438 3.76494 22.2693 2.97741 21.5835C-0.0189243 18.9579 0.276399 14.9485 3.60497 12.7491C5.79531 11.3035 8.20099 11.0811 10.6251 11.9522C11.6772 12.329 12.2679 12.051 13.0923 11.4271C14.4767 10.383 15.9656 9.38835 17.553 8.71496C20.457 7.47938 23.2934 7.85623 25.8775 9.74667C26.4497 10.1668 27.028 10.5745 27.7663 10.7969C27.2618 10.1853 26.7573 9.57987 26.1851 8.89412C28.117 7.12724 30.2397 6.08935 32.8546 6.52798C34.7065 6.83688 35.7032 8.08481 35.6602 9.9629C35.611 12.2302 34.4789 14.0465 33.2422 15.8628C30.8488 13.4905 30.1536 10.7042 31.3595 8.60994C30.1905 8.85705 29.5875 9.57987 29.8398 10.8711C30.0859 12.1375 30.492 13.4102 31.0457 14.5716C32.6085 17.8644 32.1224 21.1078 29.323 23.4246C25.5268 26.5753 21.1277 27.4587 16.3655 26.2479C15.4488 26.0131 14.5751 25.4756 13.7814 24.9258C12.8401 24.2771 12.4032 23.4307 12.5509 22.1148C12.6986 20.7372 12.5017 19.2545 12.151 17.8953C11.6834 16.1161 10.4282 14.9114 8.68089 14.238C8.93117 14.6536 9.19108 15.0553 9.44763 15.4518ZM26.7312 23.9807C26.7441 23.9248 26.7555 23.868 26.7657 23.8107C26.8164 23.5237 26.8359 23.221 26.8549 22.9263L26.8549 22.926C26.8628 22.8039 26.8706 22.6831 26.8805 22.5654C26.8128 20.7552 26.296 19.1428 24.9547 17.9196C23.7734 16.8446 22.6105 17.1968 22.2291 18.7474L22.2153 18.8048C22.194 18.8957 22.1747 18.9864 22.1576 19.0767C21.8476 20.7142 22.2355 22.2515 23.1642 23.6531L23.1952 23.6999C23.3027 23.8619 23.4131 24.0283 23.5292 24.1897C24.0274 24.8834 24.6306 25.4862 25.5613 25.2469C25.5905 25.2395 25.62 25.2314 25.6498 25.2223C26.3238 25.0173 26.6023 24.5399 26.7312 23.9807ZM20.0895 18.8507L20.0895 18.8507C19.8078 18.5898 19.5919 18.39 19.4295 18.4266C19.1803 18.4827 18.9761 18.7317 18.7708 18.982C18.6821 19.09 18.5933 19.1984 18.5005 19.2915C18.5909 19.3748 18.6796 19.476 18.7684 19.5772C18.9694 19.8066 19.1707 20.0362 19.3926 20.0576C19.5884 20.0781 19.8058 19.8977 20.0896 19.6621L20.0896 19.6621C20.234 19.5423 20.3955 19.4083 20.5801 19.2792C20.3979 19.1362 20.2349 18.9853 20.0895 18.8507ZM28.64 16.8698L28.6397 16.8696L28.6401 16.8693C28.419 16.7319 28.2354 16.5995 28.0766 16.4851L28.0766 16.485C27.7716 16.2651 27.5585 16.1115 27.3481 16.1156C27.3427 16.1157 27.3372 16.116 27.3316 16.1165C27.0588 16.1345 26.5732 16.6188 26.6097 16.8018C26.6773 17.1293 27.0465 17.5741 27.348 17.6297C27.3759 17.6344 27.4044 17.635 27.4337 17.6318C27.5677 17.6187 27.7206 17.5227 27.9119 17.3842C27.9619 17.3482 28.0145 17.3092 28.07 17.268C28.2321 17.1479 28.4192 17.0092 28.64 16.8698Z" />
  </symbol>

</svg>