<svg xmlns="http://www.w3.org/2000/svg">

  <symbol id="socials-youtube" viewBox="0 0 40 40">
    <circle cx="20" cy="20" r="20" fill="#FF0000" />
    <path fill-rule="evenodd" clip-rule="evenodd"
      d="M31.3005 12.3781C31.6996 12.7772 31.9872 13.2739 32.1346 13.8187C32.9835 17.2357 32.7873 22.6324 32.1511 26.1813C32.0037 26.7261 31.7161 27.2228 31.317 27.6219C30.9179 28.021 30.4212 28.3086 29.8764 28.456C27.8819 29 19.8544 29 19.8544 29C19.8544 29 11.8269 29 9.8324 28.456C9.28759 28.3086 8.79089 28.021 8.39179 27.6219C7.99269 27.2228 7.70511 26.7261 7.55768 26.1813C6.70383 22.7791 6.9379 17.3791 7.5412 13.8352C7.68862 13.2903 7.97621 12.7936 8.37531 12.3945C8.77441 11.9954 9.2711 11.7079 9.81592 11.5604C11.8104 11.0165 19.8379 11 19.8379 11C19.8379 11 27.8654 11 29.8599 11.544C30.4047 11.6914 30.9014 11.979 31.3005 12.3781ZM23.9423 20L17.283 23.8571V16.1428L23.9423 20Z"
      fill="white" />
  </symbol>

  <symbol id="socials-instagram" viewBox="0 0 40 40">
    <circle cx="20" cy="20" r="20" fill="#C13584" />
    <path
      d="M20 10.1622C23.2041 10.1622 23.5837 10.1744 24.849 10.2321C26.019 10.2855 26.6544 10.481 27.0773 10.6453C27.6374 10.863 28.0371 11.123 28.457 11.5429C28.877 11.9629 29.137 12.3626 29.3547 12.9227C29.519 13.3456 29.7145 13.981 29.7679 15.1509C29.8256 16.4163 29.8378 16.7958 29.8378 19.9999C29.8378 23.2041 29.8256 23.5836 29.7679 24.849C29.7145 26.019 29.519 26.6543 29.3547 27.0772C29.137 27.6373 28.877 28.0371 28.4571 28.457C28.0371 28.8769 27.6374 29.1369 27.0773 29.3546C26.6544 29.519 26.019 29.7144 24.849 29.7678C23.5839 29.8255 23.2044 29.8378 20 29.8378C16.7956 29.8378 16.4162 29.8255 15.151 29.7678C13.981 29.7144 13.3456 29.519 12.9227 29.3546C12.3626 29.1369 11.9629 28.8769 11.543 28.457C11.1231 28.0371 10.863 27.6373 10.6453 27.0772C10.481 26.6543 10.2855 26.019 10.2321 24.849C10.1744 23.5836 10.1622 23.2041 10.1622 19.9999C10.1622 16.7958 10.1744 16.4163 10.2321 15.1509C10.2855 13.981 10.481 13.3456 10.6453 12.9227C10.863 12.3626 11.123 11.9629 11.543 11.543C11.9629 11.123 12.3626 10.863 12.9227 10.6453C13.3456 10.481 13.981 10.2855 15.151 10.2321C16.4163 10.1744 16.7959 10.1622 20 10.1622ZM20 8C16.741 8 16.3323 8.01381 15.0524 8.07221C13.7752 8.13047 12.9028 8.33334 12.1395 8.62996C11.3504 8.93663 10.6812 9.34694 10.0141 10.0141C9.34695 10.6812 8.93663 11.3504 8.63001 12.1395C8.33334 12.9028 8.13047 13.7751 8.07221 15.0524C8.01381 16.3323 8 16.741 8 19.9999C8 23.259 8.01381 23.6676 8.07221 24.9475C8.13047 26.2248 8.33334 27.0971 8.63001 27.8604C8.93663 28.6495 9.34695 29.3187 10.0141 29.9859C10.6812 30.653 11.3504 31.0633 12.1395 31.3699C12.9028 31.6666 13.7752 31.8694 15.0524 31.9277C16.3323 31.9861 16.741 31.9999 20 31.9999C23.259 31.9999 23.6677 31.9861 24.9476 31.9277C26.2248 31.8694 27.0972 31.6666 27.8605 31.3699C28.6496 31.0633 29.3188 30.653 29.9859 29.9859C30.653 29.3187 31.0634 28.6495 31.37 27.8604C31.6667 27.0971 31.8695 26.2248 31.9278 24.9475C31.9862 23.6676 32 23.259 32 19.9999C32 16.741 31.9862 16.3323 31.9278 15.0524C31.8695 13.7751 31.6667 12.9028 31.37 12.1395C31.0634 11.3504 30.653 10.6812 29.9859 10.0141C29.3188 9.34694 28.6496 8.93663 27.8605 8.62996C27.0972 8.33334 26.2248 8.13047 24.9476 8.07221C23.6677 8.01381 23.259 8 20 8Z"
      fill="white" />
    <path
      d="M20.0054 13.8433C16.6021 13.8433 13.8433 16.6021 13.8433 20.0054C13.8433 23.4087 16.6021 26.1675 20.0054 26.1675C23.4087 26.1675 26.1676 23.4087 26.1676 20.0054C26.1676 16.6021 23.4087 13.8433 20.0054 13.8433ZM20.0054 24.0054C17.7963 24.0054 16.0054 22.2145 16.0054 20.0054C16.0054 17.7963 17.7963 16.0054 20.0054 16.0054C22.2146 16.0054 24.0054 17.7963 24.0054 20.0054C24.0054 22.2145 22.2146 24.0054 20.0054 24.0054Z"
      fill="white" />
    <path
      d="M27.8507 13.5963C27.8507 14.3915 27.206 15.0363 26.4107 15.0363C25.6154 15.0363 24.9707 14.3915 24.9707 13.5963C24.9707 12.801 25.6154 12.1562 26.4107 12.1562C27.206 12.1562 27.8507 12.801 27.8507 13.5963Z"
      fill="white" />
  </symbol>

  <symbol id="socials-facebook" viewBox="0 0 40 40">
    <circle cx="20" cy="20" r="20" fill="#3B5998" />
    <path fill-rule="evenodd" clip-rule="evenodd"
      d="M25.315 12.9578C24.6917 12.8331 23.8498 12.74 23.3204 12.74C21.8867 12.74 21.7936 13.3633 21.7936 14.3607V16.1361H25.3774L25.065 19.8137H21.7936V31H17.3063V19.8137H15V16.1361H17.3063V13.8613C17.3063 10.7453 18.7708 9 22.4477 9C23.7252 9 24.6602 9.187 25.8753 9.43633L25.315 12.9578Z"
      fill="white" />
  </symbol>

  <symbol id="arrow" viewBox="0 0 26 22">
    <path fill-rule="evenodd" clip-rule="evenodd"
      d="M14.0682 0.119971C13.8861 0.199174 13.7206 0.315255 13.5813 0.461565C13.4417 0.607505 13.3309 0.780876 13.2554 0.971748C13.1798 1.16262 13.1409 1.36724 13.1409 1.57389C13.1409 1.78055 13.1798 1.98517 13.2554 2.17604C13.3309 2.36691 13.4417 2.54028 13.5813 2.68622L19.609 9H2.4584C2.03405 9 1.62709 9.21071 1.32703 9.58579C1.02697 9.96086 0.858398 10.4696 0.858398 11C0.858398 11.5304 1.02697 12.0391 1.32703 12.4142C1.62709 12.7893 2.03405 13 2.4584 13H19.6098L13.5813 19.3146C13.2998 19.6096 13.1416 20.0097 13.1416 20.4269C13.1416 20.8441 13.2998 21.2443 13.5813 21.5393C13.8629 21.8343 14.2447 22 14.6429 22C15.041 22 15.4229 21.8343 15.7044 21.5393L24.7004 12.1127C24.84 11.9668 24.9508 11.7934 25.0264 11.6026C25.102 11.4117 25.1409 11.2071 25.1409 11.0004C25.1409 10.7938 25.102 10.5891 25.0264 10.3983C24.9508 10.2074 24.84 10.034 24.7004 9.88808L15.7044 0.461565C15.5651 0.315255 15.3997 0.199174 15.2175 0.119971C15.0354 0.0407677 14.8401 0 14.6429 0C14.4457 0 14.2504 0.0407677 14.0682 0.119971Z" />
  </symbol>

  <symbol id="pay-feed-1" viewBox="0 0 106 80">
    <path
      d="M97.3634 5.66044C90.9637 1.104 82.3479 -0.855944 73.9599 0.350174C65.2612 1.60655 57.6396 5.81121 53.021 11.9088C48.4024 5.81121 40.7807 1.60655 32.0821 0.350174C23.6941 -0.855944 15.0783 1.08725 8.67857 5.66044C0.974046 11.356 -1.78053 20.9882 1.13973 32.0945C1.16045 32.128 1.18116 32.1615 1.20187 32.2118C1.28471 32.396 1.38827 32.5636 1.53324 32.7143C1.57467 32.7478 1.57467 32.7813 1.61609 32.8148C1.65751 32.8483 1.71964 32.8651 1.76107 32.8986C1.84391 32.9656 1.94747 33.0159 2.05102 33.0494C2.25813 33.1331 2.46524 33.1834 2.69307 33.2001C2.7552 33.2001 2.81733 33.2336 2.85875 33.2336C2.92089 33.2336 2.98302 33.2169 3.04515 33.2001C3.10729 33.2001 3.16942 33.2001 3.23155 33.2001C3.29369 33.1834 3.3144 33.1666 3.37653 33.1499C3.48009 33.1164 3.60435 33.0829 3.70791 33.0326C3.81146 32.9824 3.91502 32.9321 3.99786 32.8651C4.03929 32.8316 4.08071 32.8316 4.12213 32.7981L10.3355 27.7726L10.3562 27.7558C11.7231 26.6502 13.9185 26.6335 15.3061 27.7223C16.6938 28.8112 16.7352 30.5869 15.4097 31.726L5.21982 39.9678C4.76417 40.3363 4.59848 40.8556 4.76417 41.3414C4.92986 41.8272 5.40622 42.2293 6.00684 42.3465C6.60746 42.4638 7.27021 42.3465 7.72586 41.978L17.8122 33.8199C17.8329 33.8032 17.8536 33.8032 17.8536 33.8032C17.8743 33.7864 17.895 33.7529 17.9157 33.7362L24.0462 28.7777C24.0669 28.7609 24.0876 28.7609 24.0876 28.7442C25.4753 27.6553 27.6913 27.6553 29.079 28.7442C30.4459 29.8498 30.4459 31.659 29.0997 32.7646L29.079 32.7813L10.2526 48.0086C9.79696 48.3771 9.63128 48.8964 9.79696 49.3822C9.96265 49.868 10.439 50.2533 11.0396 50.3873C11.6403 50.5213 12.303 50.3706 12.7379 50.0188L29.079 36.8185L29.1204 36.785C30.508 35.6961 32.7448 35.7296 34.0911 36.852C35.4373 37.9743 35.4373 39.7668 34.0703 40.8724L30.3216 43.9044L16.673 54.9437C16.2174 55.3123 16.0517 55.8316 16.2174 56.3174C16.3831 56.8032 16.8594 57.1885 17.4601 57.3225C18.0607 57.4565 18.7234 57.3057 19.1584 56.9539L32.807 45.9146C34.1946 44.7923 36.4314 44.7923 37.7983 45.9146C39.186 47.037 39.186 48.8462 37.7983 49.9518C37.7983 49.9518 37.7983 49.9685 37.7776 49.9685L24.0876 61.0413L24.0669 61.0581L24.0462 61.0748C23.9841 61.1419 23.9219 61.2256 23.8805 61.2926C23.8184 61.3596 23.7562 61.4434 23.6941 61.5271C23.6527 61.6109 23.632 61.7114 23.632 61.7952C23.5698 61.9627 23.5698 62.1637 23.6527 62.3312C23.6734 62.415 23.6941 62.5155 23.7355 62.5992C23.7977 62.683 23.8598 62.7668 23.9219 62.8338C23.9633 62.9008 24.0255 62.9845 24.0876 63.0515L24.1083 63.0683L24.129 63.085C32.7656 69.3502 42.1062 74.9452 52.0476 79.7864C52.6068 80.0712 53.3317 80.0712 53.8909 79.7864C63.8322 74.9452 73.1729 69.3502 81.8094 63.085L81.8301 63.0683L81.8508 63.0515C81.9129 62.9845 81.9751 62.9175 82.0165 62.8338C82.0993 62.7668 82.1615 62.683 82.2029 62.5992C82.265 62.415 82.3064 62.2475 82.3479 62.0632C82.3479 61.9794 82.3272 61.8789 82.3064 61.7952C82.2857 61.7114 82.265 61.6109 82.2443 61.5271C82.2029 61.4434 82.1408 61.3596 82.0579 61.2926C82.0165 61.2089 81.9544 61.1419 81.8922 61.0748L81.8715 61.0581L81.8508 61.0413L68.1608 49.9685C68.1608 49.9685 68.1608 49.9518 68.1401 49.9518C66.7524 48.8294 66.7524 47.0202 68.1401 45.9146C69.5277 44.7923 71.7645 44.7923 73.1314 45.9146L86.78 56.9539C87.4635 57.5067 88.5819 57.5067 89.2861 56.9539C89.9696 56.4011 89.9696 55.4966 89.2861 54.927L75.6375 43.8877L71.8888 40.8556C70.9982 40.1353 70.6461 39.0799 70.9775 38.0916C71.3089 37.1033 72.2616 36.3327 73.4835 36.0647C74.7055 35.7966 76.0103 36.0814 76.9009 36.8017L76.9216 36.8185L93.2212 50.002C93.9047 50.5548 95.023 50.5548 95.7065 50.002C96.39 49.4492 96.39 48.5446 95.7065 47.9918L79.3862 34.8083L79.3655 34.7915C79.3448 34.7748 79.3448 34.7748 79.3241 34.7748L76.8594 32.7813C75.4718 31.659 75.4718 29.8498 76.8594 28.7442C78.2471 27.6386 80.4839 27.6218 81.8508 28.7442C81.8715 28.7609 81.8922 28.7609 81.8922 28.7777L87.857 33.6022C87.9192 33.6692 88.002 33.7362 88.1056 33.8032L98.2333 41.978C98.6889 42.3465 99.331 42.4805 99.9523 42.3465C100.553 42.2125 101.029 41.8272 101.195 41.3414C101.361 40.8556 101.174 40.3196 100.739 39.9678L90.5909 31.7762C90.5702 31.7427 90.5287 31.7092 90.4873 31.6925V31.6757C89.2239 30.5534 89.2654 28.8112 90.6116 27.7391C91.9992 26.667 94.2153 26.667 95.603 27.7391L101.837 32.7813C101.878 32.8148 101.92 32.8148 101.961 32.8483C102.148 32.9656 102.355 33.0661 102.583 33.1164C102.624 33.1331 102.665 33.1499 102.728 33.1666C102.852 33.1834 102.976 33.2001 103.1 33.2001C103.307 33.2001 103.535 33.1666 103.722 33.0996C103.784 33.0829 103.825 33.0494 103.887 33.0326C104.032 32.9824 104.157 32.8986 104.281 32.8148C104.302 32.7981 104.322 32.7981 104.343 32.7813C104.384 32.7478 104.384 32.7143 104.426 32.6808C104.509 32.5971 104.592 32.4966 104.654 32.396C104.695 32.329 104.737 32.262 104.757 32.195C104.778 32.1448 104.799 32.1113 104.819 32.061C107.802 20.9882 105.068 11.356 97.3634 5.66044ZM102.023 28.8447L98.1918 25.7456C95.3959 23.5847 91.0051 23.5847 88.2091 25.7456C87.3392 26.466 86.7179 27.3371 86.3865 28.3087L84.4604 26.7507C84.4397 26.734 84.3983 26.7172 84.3776 26.7005C81.9336 24.7573 78.1021 24.5228 75.3268 26.1477C72.5515 27.7726 71.6195 30.7711 73.1314 33.2671C70.6875 33.6357 68.6786 35.0261 67.8294 36.9022C66.9802 38.7784 67.4152 40.8891 68.9892 42.447C67.7466 42.6816 66.6075 43.2009 65.7169 43.9212C62.983 46.1491 62.9623 49.734 65.6962 51.9787C65.7169 51.9955 65.7169 52.0122 65.7169 52.0122L78.1021 62.0297C70.294 67.5745 61.906 72.5665 53.0417 76.9554C44.1774 72.5665 35.7894 67.5745 27.9813 62.0297L40.3665 52.0122C40.3872 51.9955 40.3872 51.9787 40.3872 51.9787C43.1004 49.734 43.1004 46.1491 40.3665 43.9212C39.4552 43.2009 38.3368 42.6816 37.0942 42.447C38.6682 40.8891 39.1031 38.7952 38.254 36.9022C37.4048 35.0093 35.3959 33.6357 32.9727 33.2504C34.2775 31.0727 33.739 28.4594 31.6264 26.734C28.8719 24.5898 24.5225 24.573 21.7058 26.6837C21.6644 26.7005 21.6437 26.7172 21.6023 26.734L19.6761 28.2919C19.3655 27.3203 18.7442 26.4325 17.8743 25.7121C15.1404 23.5009 10.6875 23.4842 7.93297 25.6786C7.91226 25.6954 7.89155 25.6954 7.89155 25.7121L4.06 28.8112C2.46524 19.8826 4.95057 12.2941 11.1018 7.73764C16.7145 3.80101 24.2119 2.12585 31.5436 3.1477C39.8487 4.27006 46.9526 8.60873 51.5091 15.3596C51.8405 15.7952 52.4411 16.0465 53.0624 16.0465C53.6837 16.0465 54.2844 15.7784 54.6157 15.3596C59.1929 8.59198 66.2761 4.2533 74.5812 3.1477C81.8922 2.12585 89.4103 3.81776 95.023 7.73764C101.133 12.3108 103.618 19.8993 102.023 28.8447Z" />
  </symbol>

  <symbol id="pay-feed-2" viewBox="0 0 100 80">
    <path fill-rule="evenodd" clip-rule="evenodd"
      d="M100 6.40751V53.5977C99.989 53.6109 99.9768 53.6241 99.9644 53.6376C99.9182 53.6877 99.8695 53.7406 99.8695 53.8064C99.2171 56.4571 97.3382 58.2938 94.2589 59.4C93.9979 59.4834 93.7892 59.8591 93.7631 60.1096C93.7239 61.6906 93.7288 63.2717 93.7337 64.8527C93.7353 65.3797 93.737 65.9066 93.737 66.4336C93.737 68.312 93.4238 70.2113 92.0407 71.7141C90.6315 73.2377 90.475 74.8239 90.6054 76.5562C90.6229 76.7239 90.617 76.9009 90.6112 77.0748V77.075C90.6083 77.1607 90.6054 77.2457 90.6054 77.3285C90.5793 79.0399 89.4311 80 87.2912 80H62.8914C60.8038 80 59.6294 79.0608 59.6033 77.3911C59.586 76.4318 59.5917 75.4817 59.5975 74.5286L59.5975 74.5272C59.6004 74.0499 59.6033 73.5719 59.6033 73.0916C59.6033 71.0253 58.5334 70.107 55.9499 69.9609C51.6441 69.7104 48.3559 67.5607 47.3382 64.3673C46.8685 62.8855 47.0511 61.4453 47.6775 59.9217H46.3988H9.68163C3.91441 59.9217 0 56.791 0 52.1785V37.3389V7.59718C0 4.63345 1.59186 2.37934 4.82777 0.939212C5.50848 0.63021 6.27999 0.445693 7.05086 0.26133L7.05086 0.261329C7.37341 0.184185 7.69586 0.107069 8.01148 0.0208714C35.9864 0 63.9875 0 91.9885 0C92.0799 0.0208714 92.1712 0.0469606 92.2625 0.0730499L92.2625 0.0730539C92.3539 0.0991418 92.4452 0.125229 92.5365 0.1461C96.0595 0.75137 98.382 2.44195 99.5564 5.15523C99.7225 5.51582 99.8454 5.91092 99.9645 6.29345L100 6.40751ZM92.9802 54.5369C93.9457 53.8482 94.1284 53.0342 94.1284 52.1158V7.91025C94.1284 5.71876 92.8758 4.69606 90.1618 4.69606H9.78601C7.09812 4.69606 5.84551 5.69789 5.84551 7.84764V52.0532C5.84551 54.203 7.09812 55.2257 9.75992 55.2257H58.4812C58.7977 55.2257 59.1143 55.2075 59.452 55.1881L59.5251 55.1839V44.8526H58.4029C57.4538 44.8526 56.5076 44.8549 55.5623 44.8572H55.5618H55.5612H55.5606C53.6736 44.8619 51.7904 44.8665 49.8956 44.8526C43.1889 44.8109 37.7349 40.5114 37.6305 35.2309C37.5261 29.7417 42.7453 25.2335 49.6086 25.1709C58.2724 25.0665 66.9363 25.0665 75.5741 25.1709C83.5334 25.2752 89.1962 31.5993 86.9259 37.7146C85.6994 41.054 82.9332 43.2455 78.8622 44.3934C78.5491 44.4769 78.0793 44.7274 78.0793 44.8943C78.0403 46.1889 78.0451 47.4835 78.0499 48.8216C78.0516 49.2741 78.0532 49.7315 78.0532 50.1957H84.2902C87.3434 50.1957 89.8747 51.114 91.7537 53.0342C92.0766 53.3532 92.3442 53.7055 92.6371 54.0909C92.7465 54.2349 92.8595 54.3836 92.9802 54.5369ZM84.7338 75.2622C84.7338 74.9688 84.7369 74.6876 84.7399 74.4145V74.4144V74.4142V74.4141C84.7456 73.8909 84.751 73.3973 84.7338 72.9037C84.7077 72.1106 85.0209 71.4427 85.6994 70.8583C87.213 69.5852 87.8653 68.0616 87.8653 66.3084V57.9598C87.8653 55.9353 86.5606 54.8917 84.0031 54.8917H75.4175C73.3559 54.8917 72.2077 53.9943 72.1816 52.3454C72.1642 51.0101 72.17 49.6748 72.1758 48.3394V48.3381C72.1787 47.6702 72.1816 47.0023 72.1816 46.3345C72.1816 46.0214 72.1833 45.7084 72.1849 45.3953C72.1898 44.4561 72.1947 43.5169 72.1555 42.5776C72.1033 41.0749 70.8507 39.9896 69.1545 39.8643C67.0668 39.7182 65.4749 40.9496 65.4749 42.7446C65.4575 45.9586 65.4634 49.1727 65.4692 52.3806V52.3823V52.3839V52.3856C65.4721 53.9881 65.4749 55.589 65.4749 57.1876C65.4749 59.0451 64.3789 59.9009 62.0564 59.9217C61.1169 59.9322 60.1709 59.927 59.2249 59.9217C58.279 59.9165 57.333 59.9113 56.3935 59.9217C54.3841 59.9635 52.9749 61.0488 52.9489 62.5098C52.8967 63.9917 54.3058 65.1605 56.3152 65.2648C56.4196 65.269 56.524 65.2723 56.6284 65.2757C57.0459 65.289 57.4635 65.3024 57.881 65.3692C62.3434 66.0371 65.3706 68.8964 65.4749 72.5489C65.4923 73.1456 65.4866 73.7422 65.4808 74.345V74.3454V74.3455V74.3456V74.3457C65.4779 74.6494 65.4749 74.9546 65.4749 75.2622H84.7338ZM77.6096 39.8852C77.8637 39.7213 78.1281 39.5677 78.3915 39.4147C78.9666 39.0806 79.5369 38.7493 79.9843 38.3199C81.7328 36.6919 82.0981 34.8135 80.976 32.8516C79.8278 30.8479 77.7923 29.8043 75.0261 29.7835C69.4795 29.7696 63.9329 29.7742 58.3785 29.7788H58.3779H58.3773H58.3749H58.3738H58.3728H58.3717C55.5921 29.7811 52.8106 29.7835 50.0261 29.7835C49.5303 29.7835 49.0344 29.8043 48.5647 29.8878C45.2766 30.4722 43.1628 32.8516 43.5282 35.5648C43.8413 38.0903 46.6336 40.0939 49.9217 40.1148C51.2297 40.1237 52.5378 40.1212 53.8478 40.1186H53.8479H53.8479H53.848H53.8481H53.8482H53.8483C55.5961 40.1152 57.3475 40.1118 59.1075 40.1357C59.8382 40.1357 60.1514 39.9478 60.4645 39.426C63.2568 34.5213 71.3988 33.5821 75.7568 37.6728C76.2055 38.1179 76.5802 38.5925 76.9997 39.124L76.9998 39.1242L76.9999 39.1242C77.1902 39.3654 77.3897 39.6182 77.6096 39.8852ZM18.7369 47.42C16.6232 47.0652 15.501 46.1051 15.6837 44.8111C15.8664 43.4127 17.1712 42.6613 19.3371 42.6613H21.6858C23.6169 42.6404 25.0522 41.5134 25.0783 40.0315C25.1044 38.5496 23.6952 37.4226 21.7641 37.3391C17.406 37.1513 13.9875 35.1059 12.8914 31.996C11.6388 28.3853 13.6743 24.858 18.0062 23.2718C18.5282 23.0839 18.7891 22.8752 18.8413 22.3743C18.9457 21.0803 20.0678 20.2037 21.5553 20.1202C23.095 20.0367 24.2432 20.809 24.6607 22.1239C24.7129 22.3326 25.0261 22.583 25.287 22.6248C26.9833 22.9587 27.9488 23.9188 27.7923 25.1919C27.6357 26.4025 26.4614 27.2373 24.7912 27.3C24.1823 27.3139 23.5734 27.3092 22.9645 27.3046C22.66 27.3023 22.3556 27.3 22.0511 27.3C19.8852 27.3208 18.3977 28.427 18.3977 29.9715C18.4238 31.4951 19.8852 32.5804 21.9728 32.643C26.1482 32.7683 29.6451 34.9806 30.6367 38.1531C31.7588 41.6595 29.5668 45.2494 25.4436 46.7521C25.1044 46.8773 24.739 47.2113 24.6868 47.4826C24.452 48.9018 23.4342 49.7993 21.8946 49.8619C20.3288 49.9245 19.2067 49.1523 18.8152 47.733C18.8152 47.6635 18.792 47.5939 18.7688 47.5243C18.7572 47.4895 18.7456 47.4548 18.7369 47.42ZM37.8916 12.3978C37.8916 13.6919 39.1964 14.7145 40.8144 14.7145C42.4062 14.6937 43.7371 13.6501 43.7371 12.377C43.7371 11.1038 42.354 10.0185 40.7883 10.0394C39.1964 10.0394 37.8916 11.1247 37.8916 12.3978ZM28.2362 14.7145C26.6444 14.7145 25.3396 13.6918 25.3135 12.3978C25.3135 11.1038 26.5922 10.0602 28.184 10.0393C29.7759 10.0185 31.1851 11.1455 31.159 12.4187C31.159 13.671 29.8281 14.7145 28.2362 14.7145ZM12.7347 12.4396C12.7608 13.6919 14.1178 14.7354 15.7097 14.7146C17.3276 14.6937 18.5803 13.671 18.5803 12.377C18.5803 11.0829 17.2754 10.0185 15.6836 10.0394C14.0917 10.0394 12.7086 11.1664 12.7347 12.4396Z" />
  </symbol>

  <symbol id="pay-feed-3" viewBox="0 0 80 80">
    <path
      d="M6.66732 68H9.33398C10.0673 68 10.6673 67.4 10.6673 66.6667C10.6673 65.9333 10.0673 65.3333 9.33398 65.3333H6.66732C5.93398 65.3333 5.33398 65.9333 5.33398 66.6667C5.33398 67.4 5.93398 68 6.66732 68Z" />
    <path
      d="M70.6673 68H73.334C74.0673 68 74.6673 67.4 74.6673 66.6667C74.6673 65.9333 74.0673 65.3333 73.334 65.3333H70.6673C69.934 65.3333 69.334 65.9333 69.334 66.6667C69.334 67.4 69.934 68 70.6673 68Z" />
    <path
      d="M6.66732 76.0001H9.33398C10.0673 76.0001 10.6673 75.4001 10.6673 74.6667C10.6673 73.9334 10.0673 73.3334 9.33398 73.3334H6.66732C5.93398 73.3334 5.33398 73.9334 5.33398 74.6667C5.33398 75.4001 5.93398 76.0001 6.66732 76.0001Z" />
    <path
      d="M38.6673 68H41.334C42.0673 68 42.6673 67.4 42.6673 66.6667C42.6673 65.9333 42.0673 65.3333 41.334 65.3333H38.6673C37.934 65.3333 37.334 65.9333 37.334 66.6667C37.334 67.4 37.934 68 38.6673 68Z" />
    <path
      d="M38.6673 76.0001H41.334C42.0673 76.0001 42.6673 75.4001 42.6673 74.6667C42.6673 73.9334 42.0673 73.3334 41.334 73.3334H38.6673C37.934 73.3334 37.334 73.9334 37.334 74.6667C37.334 75.4001 37.934 76.0001 38.6673 76.0001Z" />
    <path
      d="M70.6673 76.0001H73.334C74.0673 76.0001 74.6673 75.4001 74.6673 74.6667C74.6673 73.9334 74.0673 73.3334 73.334 73.3334H70.6673C69.934 73.3334 69.334 73.9334 69.334 74.6667C69.334 75.4001 69.934 76.0001 70.6673 76.0001Z" />
    <path
      d="M21.9336 41.4167C21.6669 40.7334 20.9002 40.3834 20.2002 40.6667L17.7169 41.6334C17.0336 41.9 16.6836 42.6667 16.9669 43.3667C17.2336 44.05 18.0002 44.4 18.7002 44.1167L21.1836 43.15C21.8669 42.8667 22.2002 42.1 21.9336 41.4167Z" />
    <path
      d="M78.3 32.0167C78.65 28.7167 76.4 25.7 73.1333 25.1C69.7 19.8667 62.6667 18.4167 57.45 21.8667C56.1667 22.7167 55.0667 23.8167 54.2167 25.1C53.4667 25.2333 52.75 25.5 52.1 25.9L57.2667 12.4833C57.5333 11.8 57.1833 11.0167 56.5 10.7667C56.4833 10.7667 56.4667 10.75 56.45 10.75L52.45 9.41667C51.7667 9.18333 51.0333 9.53333 50.7833 10.2L49.3333 13.8833V1.33333C49.3333 0.6 48.7333 0 48 0H42.6667C41.9333 0 41.3333 0.6 41.3333 1.33333V13.8833L39.9167 10.1833C39.6667 9.51667 38.9333 9.16667 38.25 9.4L34.25 10.7333C33.55 10.9667 33.1667 11.7167 33.4 12.4167C33.4 12.4333 33.4167 12.45 33.4167 12.4667L39.1333 27.3167C39.7 28.8 40 30.3833 40 31.9833V33.4833C39.55 33.65 39.1333 33.85 38.7167 34.1L38.2667 33.2C37.0833 30.8167 34.6667 29.3167 32 29.3333H28.8333C28.1 29.3333 27.5 29.9333 27.5 30.6667C27.5 30.8667 27.55 31.0833 27.6333 31.2667L28.7333 33.4667C29.9167 35.85 32.3333 37.35 35 37.3333H35.3667C34.8667 38.1333 34.5 39 34.2667 39.9C32.2167 37.8333 28.8833 37.8 26.8167 39.8333C26.6667 39.9833 26.5333 40.1333 26.4 40.3L26.0833 40.6833C25.7667 41.0667 25.5 41.4833 25.25 41.9L24.0667 37.8C23.5 35.8667 22.2833 34.2 20.6333 33.0667C23.0333 31.2667 23.9333 28.1 22.8333 25.3167C21.7167 22.5167 18.8833 20.8 15.8833 21.1167C12.5 18.25 7.45 18.65 4.58333 22C3.55 23.2 2.91667 24.6833 2.71667 26.25C0.3 28.05 -0.616667 31.2333 0.45 34.05C1.53333 36.85 4.35 38.5667 7.33333 38.2667C6.88333 40.2333 7.11667 42.2833 8.01667 44.0833L12.6333 53.3333H1.33333C0.6 53.3333 0 53.9333 0 54.6667V78.6667C0 79.4 0.6 80 1.33333 80H78.6667C79.4 80 80 79.4 80 78.6667V54.6667C80 53.9333 79.4 53.3333 78.6667 53.3333H70.3167C70.4667 52.4 70.7833 51.4833 71.2333 50.65C71.3667 50.65 71.5167 50.6667 71.6667 50.6667C76.0833 50.6667 79.6667 47.0833 79.6667 42.6667C79.6667 41.6333 79.4667 40.6 79.0667 39.6333C80.55 37.2 80.2333 34.0833 78.3 32.0167ZM63.7667 51.1C63.5667 50.1667 63.25 49.25 62.8167 48.3833C63.1 48.25 63.3833 48.1 63.65 47.9333C63.9833 48.1333 64.3167 48.3 64.6667 48.4667C64.2667 49.3 63.9667 50.1833 63.7667 51.1ZM60.25 49.2167C60.9667 50.4667 61.3333 51.8833 61.3333 53.3333H59.9167C59.7667 52.1667 59.45 51.0333 58.9333 49.9667C59.4 49.7667 59.8333 49.5167 60.25 49.2167ZM56.3 50.65C56.7667 51.4833 57.0833 52.4 57.2333 53.3333H53.2667C53.0667 52.4167 52.6833 51.5667 52.1333 50.8333L50.7167 48.9333C52.1333 50.0667 53.8833 50.6667 55.6833 50.6667C55.8833 50.6667 56.0833 50.6667 56.3 50.65ZM45.15 52.25C46.8333 49.55 47.1333 46.2 45.95 43.25L47.8 38.7C47.9333 39.0167 48.0833 39.3333 48.2667 39.6333C47.5667 41.3167 47.4833 43.2 48 44.95V49.3333C48 49.6167 48.1 49.9 48.2667 50.1333L49.9833 52.4333C50.1833 52.7167 50.3667 53.0167 50.4833 53.3333H44.4667L45.15 52.25ZM52.7833 12.3333L54.25 12.8167L49.0333 26.3667C48.4667 27.85 48.1167 29.4333 48.0167 31.0167L44.2167 40.3833L44.15 40.3C43.7333 39.7833 43.2333 39.35 42.65 39.0167V37L52.7833 12.3333ZM44 20.6667V2.66667H46.6667V20.3C46.6667 20.4333 46.6833 20.55 46.7167 20.6667L45.3333 24.2833L44 20.8C44 20.75 44 20.7167 44 20.6667ZM36.4167 12.8167L37.8833 12.3333L43.3167 26.45C43.5333 27 43.6833 27.5667 43.8 28.15L42.6167 30.7333C42.5 29.2333 42.1667 27.7667 41.6333 26.3667L36.4167 12.8167ZM40 36.7333V38.3333C39.1167 38.3333 38.25 38.5667 37.4667 39C38.0667 37.9333 38.9333 37.05 40 36.45V36.7333ZM31.1333 32.2667L31 32H32C33.65 32 35.15 32.9167 35.8833 34.4L36.0167 34.6667H35.0167C33.3667 34.6667 31.85 33.75 31.1333 32.2667ZM28.15 42.3667L28.4667 41.9833C29.3667 40.8667 31 40.6833 32.1333 41.5833C32.35 41.75 32.5167 41.95 32.6667 42.1667C33.6333 43.6 35.5667 44 37.0167 43.0333C37.3667 42.8 37.65 42.5167 37.8833 42.1667C38.5333 41.1833 39.7833 40.7667 40.9 41.15C40.9 41.15 40.9167 41.15 40.9167 41.1667C41.3667 41.3333 41.7667 41.6167 42.0667 42L42.3833 42.3833C44.3333 44.8167 44.5167 48.2167 42.8833 50.85L41.3167 53.35H29.2167L27.65 50.85C26.0167 48.2 26.2167 44.8 28.15 42.3667ZM23.9 46.4333C23.9 46.4167 23.9 46.4167 23.8833 46.4L23.9 46.4333ZM2.95 33.0833C2.23333 31.25 2.96667 29.1667 4.66667 28.1667C5.06667 27.9333 5.31667 27.5167 5.33333 27.05C5.41667 24.1 7.88333 21.7833 10.8167 21.8667C12.2 21.9 13.5167 22.4833 14.4833 23.4667C14.8 23.8 15.2833 23.9333 15.7333 23.8333C17.6667 23.4167 19.6 24.45 20.3333 26.2833C21.1333 28.3333 20.1333 30.65 18.0833 31.45C17.8 31.5667 17.4833 31.65 17.1833 31.6833C17.1333 31.6833 17.0833 31.6667 17.05 31.6667C17.3333 30.35 17.95 29.1333 18.85 28.15C19.35 27.6 19.3167 26.7667 18.7667 26.2667C18.2167 25.7667 17.3833 25.8 16.8833 26.35L16.8667 26.3667C15.6167 27.7667 14.75 29.4833 14.4 31.3167C14.1833 31.3333 13.9833 31.4 13.8 31.5333L11.9167 26.7167C11.65 26.0333 10.8833 25.6833 10.1833 25.9667C9.5 26.2333 9.15 27 9.43333 27.7L11.3 32.5C11.0833 32.5333 10.8833 32.6167 10.7167 32.75C9.2 31.6333 7.41667 30.95 5.55 30.7833C4.81667 30.7167 4.16667 31.25 4.1 31.9833C4.03333 32.7167 4.56667 33.3667 5.3 33.4333C6.63333 33.5667 7.91667 34.0333 9 34.8C8.96667 34.8333 8.95 34.8833 8.91667 34.9167C7.1 36.1667 4.61667 35.7167 3.36667 33.9C3.2 33.65 3.05 33.3667 2.95 33.0833ZM14.65 51.4167L16.9 50.5333C17.5833 50.2667 17.9333 49.5 17.6667 48.8167C17.4 48.1333 16.6333 47.7833 15.95 48.05C15.95 48.05 15.95 48.05 15.9333 48.05L13.45 49.0167L12.25 46.6167L13.7167 46.05C14.4 45.7833 14.75 45.0167 14.4667 44.3167C14.1833 43.6167 13.4333 43.2833 12.7333 43.5667L11.05 44.2333L10.3833 42.9C9.63333 41.4 9.55 39.65 10.15 38.0833C10.3167 37.65 10.5333 37.25 10.7833 36.8667C11.2833 36.4667 11.7167 36.0167 12.0833 35.5C12.5333 35.1667 13.0167 34.8833 13.55 34.6833C14.0667 34.4833 14.6167 34.35 15.1833 34.3C15.8 34.4333 16.4333 34.4833 17.0667 34.4333C17.5167 34.5333 17.95 34.7 18.3667 34.9C19.8833 35.6333 21 36.9833 21.4667 38.6L23.5833 45.9333C23.6 45.9667 23.6 45.9833 23.6167 46.0167C23.25 45.6 22.65 45.45 22.1333 45.65L20.8833 46.1333C20.2 46.4 19.85 47.1667 20.1333 47.8667C20.4 48.55 21.1667 48.9 21.8667 48.6167L23.1167 48.1333C23.4833 48 23.75 47.7 23.8833 47.3333C23.95 49.0833 24.4667 50.7833 25.4 52.2667L26.0833 53.35H15.6167L14.65 51.4167ZM77.3333 69.3333H2.66667V64H77.3333V69.3333ZM77.3333 77.3333H2.66667V72H77.3333V77.3333ZM77.3333 61.3333H2.66667V56H77.3333V61.3333ZM67.6167 53.3333H66.2C66.2 51.9333 66.55 50.55 67.2333 49.3333C67.65 49.6167 68.1 49.85 68.5667 50.05C68.0833 51.0833 67.7667 52.2 67.6167 53.3333ZM76.5 38.65C76.15 39.0667 76.1 39.65 76.35 40.1333C77.75 42.7333 76.7833 45.9667 74.1833 47.3667C73.4 47.7833 72.5333 48 71.65 48C70.4667 48 69.3167 47.6 68.3833 46.8833C68.2 46.7333 67.9667 46.65 67.7333 46.6167C66.55 46.4667 65.4167 46 64.45 45.2833C63.9833 44.9333 63.3167 44.9333 62.85 45.2833C61.8833 46 60.7667 46.4667 59.5667 46.6167C59.3333 46.65 59.1 46.7333 58.9167 46.8833C57.9833 47.6167 56.8333 48.0167 55.65 48C52.7 48 50.3167 45.6167 50.3167 42.6667C50.3167 41.7833 50.5333 40.9167 50.95 40.1333C51.2 39.65 51.15 39.0667 50.8 38.65C49.8333 37.4667 49.7 35.8 50.4667 34.4833C50.6833 34.1167 50.95 33.8 51.2833 33.5167C51.6667 33.2 51.85 32.6833 51.7333 32.1833C51.2667 30.2167 52.4833 28.2333 54.45 27.7667C54.65 27.7167 54.85 27.6833 55.05 27.6667C55.5 27.6333 55.9 27.3833 56.1167 27C58.5 22.85 63.8 21.4167 67.95 23.8C69.2833 24.5667 70.3833 25.6667 71.15 27C71.3667 27.3833 71.7667 27.6333 72.2167 27.6667C74.2333 27.8 75.7667 29.55 75.6333 31.5667C75.6167 31.7667 75.5833 31.9667 75.5333 32.1667C75.4167 32.6667 75.5833 33.1667 75.9833 33.5C76.8167 34.2 77.3 35.2333 77.3 36.3167C77.3333 37.1833 77.05 38 76.5 38.65Z" />
    <path
      d="M63.6666 25.3333C61.3999 25.3333 59.3999 26.7667 58.6332 28.8833C58.3832 29.5833 58.7499 30.3333 59.4499 30.5833C60.1499 30.8333 60.8999 30.4667 61.1499 29.7667C61.6499 28.3833 63.1666 27.65 64.5499 28.15C65.3166 28.4167 65.8999 29.0167 66.1666 29.7667C66.4166 30.4667 67.1666 30.8167 67.8666 30.5833C68.5666 30.3333 68.9166 29.5833 68.6832 28.8833C67.9332 26.7667 65.9332 25.3333 63.6666 25.3333Z" />
    <path
      d="M57 34.6666C57.7333 34.6666 58.3333 34.0666 58.3333 33.3333C58.3333 32.5999 57.7333 31.9999 57 31.9999C54.7833 31.9999 53 33.7833 53 35.9999C53 38.2166 54.7833 39.9999 57 39.9999C57.7333 39.9999 58.3333 39.3999 58.3333 38.6666C58.3333 37.9333 57.7333 37.3333 57 37.3333C56.2667 37.3333 55.6667 36.7333 55.6667 35.9999C55.6667 35.2666 56.2667 34.6666 57 34.6666Z" />
    <path
      d="M9.33398 57.3333H6.66732C5.93398 57.3333 5.33398 57.9333 5.33398 58.6666C5.33398 59.4 5.93398 60 6.66732 60H9.33398C10.0673 60 10.6673 59.4 10.6673 58.6666C10.6673 57.9333 10.0673 57.3333 9.33398 57.3333Z" />
    <path
      d="M70.6673 60H73.334C74.0673 60 74.6673 59.4 74.6673 58.6666C74.6673 57.9333 74.0673 57.3333 73.334 57.3333H70.6673C69.934 57.3333 69.334 57.9333 69.334 58.6666C69.334 59.4 69.934 60 70.6673 60Z" />
    <path
      d="M41.334 57.3333H38.6673C37.934 57.3333 37.334 57.9333 37.334 58.6666C37.334 59.4 37.934 60 38.6673 60H41.334C42.0673 60 42.6673 59.4 42.6673 58.6666C42.6673 57.9333 42.0673 57.3333 41.334 57.3333Z" />
    <path
      d="M31.4337 50.6666C32.1671 50.6666 32.7671 50.0666 32.7671 49.3333C32.7671 48.9833 32.6337 48.6333 32.3837 48.3833C32.0004 48 31.9004 47.4 32.1504 46.9L32.6337 45.9166C32.9504 45.25 32.6837 44.45 32.0171 44.1333C31.3671 43.8166 30.5671 44.0833 30.2504 44.7166L29.7671 45.7C29.0004 47.2166 29.3004 49.05 30.5004 50.2666C30.7337 50.5333 31.0837 50.6666 31.4337 50.6666Z" />
  </symbol>

  <symbol id="double-quote" viewBox="0 0 60 46">
    <path
      d="M20.8247 20.52C23.0647 21.56 24.7847 23.12 25.9847 25.2C27.2647 27.2 27.9047 29.56 27.9047 32.28C27.9047 36.28 26.6247 39.52 24.0647 42C21.5047 44.48 18.2247 45.72 14.2247 45.72C10.2247 45.72 6.94469 44.48 4.38469 42C1.82469 39.52 0.544688 36.28 0.544688 32.28C0.544688 30.44 0.784688 28.6 1.26469 26.76C1.74469 24.92 2.82469 22.2 4.50469 18.6L12.1847 0.959995H26.4647L20.8247 20.52ZM52.2647 20.52C54.5047 21.56 56.2247 23.12 57.4247 25.2C58.7047 27.2 59.3447 29.56 59.3447 32.28C59.3447 36.28 58.0647 39.52 55.5047 42C52.9447 44.48 49.6647 45.72 45.6647 45.72C41.6647 45.72 38.3847 44.48 35.8247 42C33.2647 39.52 31.9847 36.28 31.9847 32.28C31.9847 30.44 32.2247 28.6 32.7047 26.76C33.1847 24.92 34.2647 22.2 35.9447 18.6L43.6247 0.959995H57.9047L52.2647 20.52Z" />
  </symbol>

  <symbol id="rs-school-logo" viewBox="0 0 138 52">
    <g clip-path="url(#clip0)">
      <path
        d="M71.2467 16.9291L77.8122 16.5059C77.962 17.5764 78.2366 18.3731 78.686 18.9457C79.4099 19.8419 80.4085 20.29 81.7316 20.29C82.7051 20.29 83.479 20.066 84.0033 19.5929C84.5025 19.2195 84.8021 18.622 84.8021 17.9996C84.8021 17.4021 84.5275 16.8295 84.0532 16.4561C83.5539 16.008 82.3806 15.5598 80.5333 15.1615C77.5127 14.4893 75.3408 13.5931 74.0677 12.4479C72.7945 11.3773 72.0705 9.80889 72.1205 8.14087C72.1205 6.99567 72.47 5.85046 73.119 4.90442C73.8679 3.8339 74.8915 2.98744 76.1147 2.51442C77.4378 1.94182 79.2851 1.64307 81.6067 1.64307C84.4526 1.64307 86.6245 2.16588 88.1223 3.2364C89.6201 4.28202 90.5188 5.97494 90.7934 8.29025L84.3028 8.66369C84.1281 7.66785 83.7786 6.94588 83.2044 6.47285C82.6302 5.99983 81.8813 5.77577 80.9077 5.77577C80.1089 5.77577 79.5098 5.95004 79.1104 6.27369C78.7359 6.57244 78.4863 7.02056 78.5112 7.51848C78.5112 7.89192 78.7109 8.24046 79.0105 8.46452C79.335 8.76327 80.1089 9.03712 81.3321 9.28608C84.3528 9.93337 86.4996 10.5807 87.8227 11.2529C89.1458 11.925 90.0944 12.7466 90.6686 13.7175C91.2677 14.7134 91.5673 15.8586 91.5423 17.0287C91.5423 18.4228 91.1429 19.817 90.3441 20.9871C89.5203 22.207 88.3719 23.1531 87.0239 23.7257C85.6009 24.3481 83.8036 24.6717 81.6567 24.6717C77.8622 24.6717 75.241 23.9497 73.7681 22.4809C72.2952 21.012 71.4215 19.1697 71.2467 16.9291ZM1.57272 24.2983V2.0414H13.081C15.203 2.0414 16.8506 2.21567 17.974 2.58911C19.0724 2.93765 20.0459 3.65963 20.695 4.63056C21.419 5.70108 21.7685 6.94587 21.7435 8.24046C21.8184 10.4313 20.695 12.5225 18.7728 13.618C18.0239 14.0412 17.2001 14.3399 16.3513 14.4893C16.9754 14.6636 17.5995 14.9623 18.1487 15.3109C18.5731 15.6594 18.9226 16.0577 19.2471 16.481C19.6216 16.9042 19.9461 17.3772 20.2207 17.8751L23.5658 24.3232H15.7272L12.0326 17.4768C11.5582 16.6055 11.1588 16.0328 10.7844 15.759C10.2851 15.4105 9.68596 15.2362 9.08683 15.2362H8.4877V24.2734H1.57272V24.2983ZM8.4877 11.0537H11.4085C12.0326 11.0039 12.6317 10.9043 13.2308 10.7549C13.6802 10.6802 14.0796 10.4313 14.3542 10.0579C15.0282 9.1616 14.9284 7.89192 14.1046 7.12015C13.6552 6.74671 12.7815 6.54754 11.5333 6.54754H8.4877V11.0537ZM0 43.3685L6.56549 42.9452C6.71527 44.0157 6.98987 44.8124 7.43922 45.385C8.13821 46.2813 9.16172 46.7543 10.4848 46.7543C11.4584 46.7543 12.2323 46.5302 12.7565 46.0572C13.2558 45.6589 13.5554 45.0863 13.5554 44.4639C13.5554 43.8664 13.2808 43.2938 12.8064 42.9203C12.3072 42.4722 11.1339 42.0241 9.26158 41.6257C6.24095 40.9536 4.0691 40.0573 2.79595 38.9121C1.52279 37.8416 0.798842 36.2731 0.84877 34.6051C0.84877 33.4599 1.19826 32.3147 1.84732 31.3687C2.59624 30.2982 3.61975 29.4517 4.84298 28.9787C6.16606 28.4061 8.01339 28.1073 10.335 28.1073C13.1809 28.1073 15.3527 28.6301 16.8506 29.7007C18.3484 30.7712 19.2221 32.4392 19.4967 34.7545L13.0062 35.1279C12.8314 34.1321 12.4819 33.4101 11.9077 32.9371C11.3585 32.4641 10.5847 32.24 9.61107 32.2649C8.81223 32.2649 8.2131 32.4392 7.81368 32.7877C7.41425 33.0865 7.18958 33.5346 7.21454 34.0325C7.21454 34.406 7.41425 34.7545 7.71382 34.9786C8.03835 35.2773 8.81223 35.5512 10.0355 35.8001C13.0561 36.4474 15.203 37.0947 16.526 37.7669C17.8491 38.4391 18.7978 39.2606 19.3719 40.2316C19.9711 41.2274 20.2706 42.3726 20.2706 43.5178C20.2706 44.912 19.8462 46.2813 19.0724 47.4514C18.2486 48.6713 17.1002 49.6173 15.7522 50.1899C14.3292 50.8123 12.5318 51.1359 10.3849 51.1359C6.59045 51.1359 3.96925 50.414 2.49638 48.9451C1.02352 47.4514 0.199711 45.6091 0 43.3685H0Z"
        fill="white" />
      <path
        d="M33.2007 41.6258L39.242 43.4432C38.9174 44.9619 38.2434 46.4058 37.3198 47.6755C36.471 48.7958 35.3476 49.6672 34.0745 50.2398C32.7763 50.8124 31.1287 51.1112 29.1316 51.1112C26.7101 51.1112 24.713 50.7626 23.1902 50.0655C21.6425 49.3684 20.3194 48.1237 19.196 46.3561C18.0726 44.5884 17.5234 42.3229 17.5234 39.5595C17.5234 35.8749 18.497 33.0368 20.4692 31.07C22.4413 29.1033 25.2123 28.1074 28.8071 28.1074C31.628 28.1074 33.8248 28.68 35.4475 29.8003C37.0451 30.9455 38.2434 32.6883 39.0423 35.0285L32.9511 36.3728C32.8013 35.85 32.5766 35.3272 32.2771 34.8791C31.9026 34.3563 31.4283 33.9579 30.8541 33.6592C30.28 33.3604 29.6309 33.236 28.9818 33.236C27.4091 33.236 26.2108 33.8584 25.387 35.128C24.7629 36.0492 24.4384 37.518 24.4384 39.5097C24.4384 41.9744 24.8129 43.6673 25.5618 44.5885C26.3107 45.5096 27.3592 45.9577 28.7322 45.9577C30.0553 45.9577 31.0538 45.5843 31.7279 44.8623C32.4019 44.0905 32.9012 43.02 33.2007 41.6258ZM47.3053 28.4809H54.1953V36.2732H61.7344V28.4809H68.6743V50.7377H61.7344V41.7254H54.1953V50.7377H47.3053V28.4809Z"
        fill="white" />
      <path
        d="M67.7266 39.6093C67.7266 35.9745 68.7501 33.1364 70.7722 31.1198C72.7942 29.1032 75.6401 28.0825 79.2599 28.0825C82.9795 28.0825 85.8253 29.0784 87.8474 31.07C89.8695 33.0617 90.868 35.85 90.868 39.435C90.868 42.0491 90.4187 44.1652 89.545 45.8332C88.6962 47.4764 87.3731 48.8207 85.7504 49.717C84.0779 50.6381 82.0059 51.1111 79.5345 51.1111C77.0131 51.1111 74.9411 50.7128 73.2935 49.9161C71.596 49.0697 70.198 47.7502 69.2743 46.132C68.2508 44.3893 67.7266 42.2233 67.7266 39.6093ZM74.6166 39.6342C74.6166 41.8748 75.041 43.493 75.8648 44.4889C76.6886 45.4598 77.8369 45.9577 79.2848 45.9577C80.7577 45.9577 81.906 45.4847 82.7298 44.5138C83.5536 43.5428 83.9531 41.825 83.9531 39.3354C83.9531 37.2442 83.5287 35.7006 82.6799 34.7546C81.8311 33.7837 80.6828 33.3106 79.2349 33.3106C77.9617 33.2608 76.7385 33.8086 75.8897 34.7795C75.041 35.7504 74.6166 37.3687 74.6166 39.6342ZM97.9328 39.6093C97.9328 35.9745 98.9563 33.1364 100.978 31.1198C103 29.1032 105.846 28.0825 109.466 28.0825C113.186 28.0825 116.057 29.0784 118.054 31.07C120.051 33.0617 121.074 35.85 121.074 39.435C121.074 42.0491 120.625 44.1652 119.751 45.8332C118.902 47.4764 117.579 48.8207 115.957 49.717C114.284 50.6381 112.212 51.1111 109.741 51.1111C107.219 51.1111 105.147 50.7128 103.5 49.9161C101.802 49.0697 100.404 47.7502 99.4806 46.132C98.457 44.3893 97.9328 42.2233 97.9328 39.6093ZM104.823 39.6342C104.823 41.8748 105.247 43.493 106.071 44.4889C106.895 45.4598 108.043 45.9577 109.491 45.9577C110.964 45.9577 112.112 45.4847 112.936 44.5138C113.76 43.5428 114.159 41.825 114.159 39.3354C114.159 37.2442 113.735 35.7006 112.886 34.7546C112.037 33.7837 110.889 33.3106 109.441 33.3106C108.168 33.2608 106.92 33.8086 106.096 34.7795C105.247 35.7504 104.823 37.3687 104.823 39.6342Z"
        fill="white" />
      <path d="M120.35 28.4805H127.24V45.2602H138V50.7373H120.325V28.4805H120.35Z" fill="white" />
      <path
        d="M112.722 27.1998C119.653 21.9789 121.793 13.1317 117.501 7.43887C113.209 1.74609 104.111 1.36352 97.1805 6.58439C90.2495 11.8053 88.11 20.6525 92.4018 26.3453C96.6935 32.0381 105.791 32.4206 112.722 27.1998Z"
        stroke="white" stroke-width="0.180618" stroke-miterlimit="10" />
      <path
        d="M112.722 27.1998C119.653 21.9789 121.793 13.1317 117.501 7.43887C113.209 1.74609 104.111 1.36352 97.1805 6.58439C90.2495 11.8053 88.11 20.6525 92.4018 26.3453C96.6935 32.0381 105.791 32.4206 112.722 27.1998Z"
        stroke="white" stroke-width="0.180618" stroke-miterlimit="10" />
      <path
        d="M97.9567 15.261L100.453 13.5183L103.524 17.8751C104.048 18.5722 104.447 19.319 104.747 20.1406C104.922 20.763 104.872 21.4352 104.622 22.0327C104.297 22.7795 103.773 23.4019 103.074 23.8501C102.25 24.4227 101.551 24.7463 100.952 24.8459C100.378 24.9455 99.779 24.8459 99.2298 24.5969C98.6307 24.2982 98.1065 23.875 97.707 23.3273L99.8539 21.3356C100.029 21.6094 100.253 21.8584 100.503 22.0576C100.678 22.182 100.877 22.2567 101.102 22.2567C101.277 22.2567 101.452 22.182 101.576 22.0825C101.826 21.9331 102.001 21.6343 101.976 21.3356C101.901 20.9124 101.726 20.4891 101.452 20.1655L97.9567 15.261ZM105.446 18.0244L107.718 16.2319C107.967 16.5307 108.292 16.7548 108.641 16.8792C109.14 17.0286 109.665 16.929 110.089 16.6054C110.389 16.4062 110.638 16.1324 110.738 15.7838C110.888 15.3357 110.638 14.8378 110.189 14.6884C110.114 14.6635 110.039 14.6386 109.964 14.6386C109.665 14.6137 109.14 14.7382 108.367 15.0618C107.093 15.5847 106.095 15.7838 105.346 15.7091C104.622 15.6344 103.948 15.261 103.549 14.6386C103.249 14.2154 103.099 13.7175 103.074 13.2196C103.074 12.6469 103.224 12.0743 103.549 11.6013C104.023 10.9291 104.597 10.3565 105.296 9.90841C106.345 9.18643 107.268 8.83789 108.067 8.83789C108.866 8.83789 109.615 9.21133 110.314 9.9831L108.067 11.7507C107.618 11.1781 106.769 11.0536 106.195 11.5017L106.12 11.5764C105.87 11.7258 105.695 11.9499 105.596 12.2237C105.521 12.4229 105.571 12.647 105.695 12.8212C105.795 12.9457 105.945 13.0453 106.12 13.0453C106.32 13.0702 106.669 12.9706 107.168 12.7465C108.417 12.2237 109.365 11.925 110.014 11.8254C110.563 11.7258 111.138 11.7756 111.662 11.9997C112.136 12.1988 112.536 12.5474 112.81 12.9706C113.16 13.4685 113.359 14.066 113.384 14.6884C113.409 15.3357 113.235 15.9581 112.885 16.5058C112.436 17.178 111.862 17.7506 111.188 18.1987C109.814 19.1448 108.691 19.5431 107.792 19.3937C106.819 19.2443 106.02 18.7464 105.446 18.0244Z"
        fill="white" />
    </g>
  </symbol>

  <symbol id="yem-digital-logo" viewBox="0 0 50 50">
    <path fill-rule="evenodd" clip-rule="evenodd"
      d="M50 25C50 38.8071 38.8071 50 25 50C11.1929 50 0 38.8071 0 25C0 11.1929 11.1929 0 25 0C38.8071 0 50 11.1929 50 25ZM6.66147 36.2813C6.2968 36.7362 5.91989 37.2064 5.52049 37.6945C5.95541 37.7226 6.27702 37.7588 6.54602 37.789C6.7433 37.8112 6.91228 37.8302 7.07691 37.8405C7.91281 37.8405 8.85051 37.7997 9.80503 37.7583C11.1832 37.6984 12.5964 37.6371 13.789 37.6945C14.4485 37.9544 14.6646 38.0992 15.0715 38.372C15.1598 38.4312 15.257 38.4964 15.3697 38.57C20.9388 42.2179 26.824 42.8502 32.6119 39.6644C33.9981 38.8862 36.4057 37.7432 36.4057 37.7432C36.4057 37.7432 39.2024 37.7918 40.5156 37.8648C41.3668 37.9134 42.218 37.8891 43.0691 37.8648C43.2915 37.8648 43.5059 37.841 43.7713 37.8115C43.9704 37.7893 44.1982 37.764 44.4796 37.7432C44.3065 37.5089 44.1674 37.3087 44.0447 37.132C43.8743 36.8868 43.7353 36.6866 43.5798 36.5029C43.4705 36.3655 43.3611 36.2276 43.2516 36.0896C42.5088 35.1529 41.7588 34.2073 40.9534 33.3171C40.2724 32.5632 40.1508 31.9552 40.5399 30.9582C44.6012 20.501 37.2812 9.071 26.1187 8.36575C14.0808 7.58754 5.20434 19.6255 9.53313 30.9095C9.92224 31.9309 9.77632 32.5875 9.09539 33.3658C8.26618 34.2796 7.49584 35.2405 6.66147 36.2813ZM30.8627 18.8283C28.9529 21.1377 27.0187 23.4765 25.0244 25.8755C23.3759 23.8876 21.7515 21.9359 20.1423 20.0024C18.523 18.0568 16.919 16.1296 15.3211 14.2023C19.4553 9.7033 28.6236 8.58462 34.752 14.1294C33.4594 15.6884 32.1667 17.2515 30.8627 18.8283ZM24.9757 37.4027C24.9757 37.4027 28.5993 32.3443 28.9397 31.8336C30.3168 33.0598 31.6061 34.2128 32.8643 35.3381C33.2282 35.6634 33.5894 35.9865 33.9495 36.3084C30.0098 40.4426 20.9874 40.9776 16.002 36.3813C17.6557 34.8979 19.3094 33.4144 21.1333 31.785C21.717 32.8064 24.9757 37.4027 24.9757 37.4027ZM11.5516 30.3745C10.1411 28.0885 9.9952 23.249 11.2841 20.0875C11.4629 20.3831 11.6401 20.6755 11.8156 20.9651C12.8098 22.6054 13.7513 24.1587 14.6401 25.7296C14.7617 25.9484 14.7131 26.4591 14.5429 26.678C13.8147 27.6488 13.0436 28.5767 12.2625 29.5165C12.0261 29.8009 11.7889 30.0864 11.5516 30.3745ZM38.8133 20.0875C39.9563 23.6624 39.8833 26.9455 38.6187 30.4718C38.5394 30.3759 38.461 30.2812 38.3834 30.1875C37.3195 28.9025 36.4175 27.813 35.5789 26.7023C35.4086 26.4591 35.3357 25.9728 35.4816 25.7296C36.2205 24.41 36.9977 23.1159 37.8314 21.7276C38.1501 21.1969 38.477 20.6525 38.8133 20.0875Z"
      fill="white" />
  </symbol>

  <symbol id="online-zoo-logo" viewBox="0 0 96 50">
    <path fill-rule="evenodd" clip-rule="evenodd"
      d="M75.3079 31.6763C76.7887 31.6763 77.7778 33.1169 77.2745 34.5457C77.0264 35.2613 76.5398 35.8058 76.0527 36.3508C76.0112 36.3973 75.9697 36.4437 75.9283 36.4903C75.583 36.8756 75.2494 37.2729 74.9626 37.6997C74.5529 38.3104 74.348 39.0159 74.2134 39.7392C74.1724 39.9644 74.1197 40.1838 74.0495 40.3972C73.6866 41.5711 72.7267 42.1224 71.562 41.7608C70.128 41.3162 69.3262 40.249 68.9399 38.8321C68.6648 37.8124 68.8228 36.846 69.4374 35.9923C69.6247 35.7255 69.9407 35.5299 70.2334 35.3757C70.4638 35.2542 70.7257 35.1924 70.9836 35.1316C71.0401 35.1183 71.0965 35.105 71.1523 35.0911C71.8312 34.9251 72.2995 34.5161 72.6448 33.9113C72.9257 33.4193 73.2242 32.9272 73.5871 32.4944C74.0261 31.9727 74.6114 31.6763 75.3079 31.6763ZM90.3669 37.8835C90.2909 39.425 89.6587 40.6522 88.336 41.4703C87.8151 41.7905 87.2473 41.9446 86.6269 41.832C85.9831 41.7134 85.509 41.3636 85.269 40.747C85.1227 40.3617 85.0173 39.9585 84.9354 39.5554C84.6954 38.3934 84.1687 37.4033 83.3375 36.5555C82.9161 36.1227 82.5357 35.6425 82.1962 35.1445C81.886 34.6939 81.7221 34.1663 81.7865 33.6031C81.9796 31.9372 83.7648 31.1368 85.1402 32.0972C85.7607 32.53 86.1821 33.1347 86.4923 33.8165C86.8318 34.5457 87.3878 34.9489 88.1428 35.1327C88.4764 35.2157 88.8101 35.3402 89.1203 35.4943C90.0158 35.939 90.2792 36.763 90.3611 37.6938C90.3699 37.7338 90.3688 37.7838 90.3677 37.8338V37.8339C90.3674 37.8456 90.3672 37.8573 90.367 37.8689C90.367 37.8738 90.3669 37.8787 90.3669 37.8835ZM80.1443 41.9778C79.968 41.9495 79.7917 41.9212 79.6158 41.8912C79.6158 41.897 79.6152 41.9033 79.6145 41.9099C79.6132 41.9237 79.6118 41.9385 79.6158 41.9505C79.4987 41.9594 79.3816 41.9653 79.2646 41.9713C79.1475 41.9772 79.0305 41.9831 78.9134 41.992C78.2462 42.0454 77.5906 42.158 77.0054 42.5019C75.8991 43.154 75.8231 44.5057 76.859 45.2646C77.0483 45.404 77.2597 45.5146 77.47 45.6247C77.5458 45.6644 77.6215 45.704 77.696 45.7448C77.8079 45.8071 77.9223 45.8668 78.0368 45.9266C78.2274 46.0262 78.4181 46.1257 78.5974 46.2369C78.89 46.4207 79.1007 46.6875 79.1183 47.0491C79.1592 47.891 78.7612 48.5905 77.7955 48.5965C77.6024 48.5965 77.3916 48.5965 77.2161 48.5313C76.9674 48.4411 76.7252 48.3362 76.4827 48.2312C76.2628 48.1361 76.0426 48.0408 75.8172 47.9562C75.6826 47.9028 75.4777 47.9028 75.3665 47.9799C75.2729 48.0451 75.2202 48.2585 75.2378 48.389C75.2553 48.4957 75.3899 48.6083 75.4953 48.6854C77.0522 49.7703 78.7671 50.1853 80.6342 49.9245C81.7814 49.7644 82.829 49.3316 83.7772 48.6498C84.0113 48.4838 84.0699 48.2645 83.9469 48.0688C83.8182 47.8673 83.6075 47.8317 83.3558 47.974C83.3119 47.9977 83.2695 48.0214 83.2271 48.0451C83.1846 48.0688 83.1422 48.0925 83.0983 48.1163C82.513 48.4364 81.9043 48.6558 81.2253 48.5905C80.6693 48.5313 80.283 48.1933 80.1425 47.6538C79.9786 47.0195 80.1074 46.5808 80.5991 46.2488C80.7722 46.1318 80.9591 46.0369 81.1461 45.9419C81.2815 45.8731 81.4169 45.8042 81.5472 45.727C81.6228 45.6829 81.6994 45.64 81.7761 45.597C82.0502 45.4434 82.3253 45.2893 82.5539 45.0808C83.2973 44.405 83.2329 43.2548 82.4252 42.662C82.1794 42.4782 81.8867 42.3181 81.5941 42.247C81.1172 42.1338 80.6309 42.0558 80.1443 41.9778Z"
      fill="white" />
    <path fill-rule="evenodd" clip-rule="evenodd"
      d="M26.1485 49.9999V45.1894H7.53358L25.5791 23.1924V19.3877H0.306599V24.1982H18.0456L0 46.1952V49.9999H26.1485ZM54.7789 34.6938C54.7789 40.1344 50.3593 44.5593 44.8896 44.5593C39.4199 44.5593 35.0002 40.1344 35.0002 34.6938C35.0002 29.2532 39.4199 24.8283 44.8896 24.8283C50.3593 24.8283 54.7789 29.2532 54.7789 34.6938ZM60.2195 34.6938C60.2195 43.1471 53.3561 49.9999 44.8896 49.9999C36.4231 49.9999 29.5596 43.1471 29.5596 34.6938C29.5596 26.2405 36.4231 19.3877 44.8896 19.3877C53.3561 19.3877 60.2195 26.2405 60.2195 34.6938Z"
      fill="white" />
    <path fill-rule="evenodd" clip-rule="evenodd"
      d="M52.3476 4.98807H49.8291V16.1798H52.3476V4.98807ZM49.95 2.70362C50.2589 2.99703 50.6417 3.14374 51.0984 3.14374C51.5685 3.14374 51.9514 2.99005 52.2469 2.68266C52.5558 2.3613 52.7103 1.97008 52.7103 1.509C52.7103 1.07586 52.5558 0.719568 52.2469 0.440123C51.9379 0.146708 51.5551 0 51.0984 0C50.6417 0 50.2589 0.153694 49.95 0.461081C49.6411 0.754498 49.4866 1.12476 49.4866 1.57187C49.4866 2.01898 49.6411 2.39623 49.95 2.70362ZM44.0051 0.628748H46.5236V16.1798H44.0051V0.628748ZM19.1203 15.593C19.9933 16.082 20.9739 16.3265 22.0619 16.3265C23.1633 16.3265 24.1505 16.082 25.0236 15.593C25.8967 15.1039 26.575 14.4263 27.0586 13.56C27.5556 12.6798 27.804 11.6877 27.804 10.5839C27.804 9.48013 27.5556 8.49509 27.0586 7.62882C26.575 6.76254 25.8967 6.08489 25.0236 5.59586C24.1505 5.10684 23.1633 4.86232 22.0619 4.86232C20.9739 4.86232 19.9933 5.10684 19.1203 5.59586C18.2472 6.08489 17.5622 6.76254 17.0652 7.62882C16.5816 8.49509 16.3398 9.48013 16.3398 10.5839C16.3398 11.6877 16.5816 12.6798 17.0652 13.56C17.5622 14.4263 18.2472 15.1039 19.1203 15.593ZM24.3587 13.1199C23.7543 13.7626 22.9887 14.084 22.0619 14.084C21.1351 14.084 20.3694 13.7626 19.765 13.1199C19.174 12.4772 18.8785 11.6319 18.8785 10.5839C18.8785 9.53602 19.174 8.6907 19.765 8.04798C20.3694 7.40526 21.1351 7.0839 22.0619 7.0839C22.9887 7.0839 23.7543 7.40526 24.3587 8.04798C24.9632 8.6907 25.2654 9.53602 25.2654 10.5839C25.2654 11.6319 24.9632 12.4772 24.3587 13.1199ZM39.5812 6.09886C38.7618 5.2745 37.6738 4.86232 36.3172 4.86232C35.5247 4.86232 34.8128 4.99506 34.1815 5.26053C33.5502 5.526 33.0264 5.91722 32.61 6.43419V4.98807H30.2124V16.1798H32.7309V10.5211C32.7309 9.43123 32.9995 8.59988 33.5368 8.02702C34.0741 7.44019 34.8061 7.14678 35.7329 7.14678C36.5523 7.14678 37.1836 7.39828 37.6268 7.90127C38.0701 8.3903 38.2917 9.12384 38.2917 10.1019V16.1798H40.8102V9.76656C40.8102 8.14579 40.4005 6.92322 39.5812 6.09886ZM61.758 4.86232C63.1146 4.86232 64.2026 5.2745 65.0219 6.09886C65.8413 6.92322 66.251 8.14579 66.251 9.76656V16.1798H63.7325V10.1019C63.7325 9.12384 63.5108 8.3903 63.0676 7.90127C62.6243 7.39828 61.993 7.14678 61.1737 7.14678C60.2469 7.14678 59.5148 7.44019 58.9775 8.02702C58.4403 8.59988 58.1716 9.43123 58.1716 10.5211V16.1798H55.6531V4.98807H58.0507V6.43419C58.4671 5.91722 58.991 5.526 59.6223 5.26053C60.2536 4.99506 60.9655 4.86232 61.758 4.86232ZM79.6182 11.4223C79.6451 11.0869 79.6585 10.8284 79.6585 10.6468C79.6585 9.50109 79.4234 8.49509 78.9533 7.62882C78.4966 6.74857 77.8519 6.07092 77.0191 5.59586C76.1998 5.10684 75.2662 4.86232 74.2185 4.86232C73.1574 4.86232 72.2038 5.10684 71.3575 5.59586C70.5113 6.08489 69.8464 6.76953 69.3629 7.64978C68.8928 8.51605 68.6577 9.4941 68.6577 10.5839C68.6577 11.6877 68.8995 12.6798 69.383 13.56C69.88 14.4263 70.5785 15.1039 71.4784 15.593C72.3784 16.082 73.4193 16.3265 74.6014 16.3265C75.5282 16.3265 76.361 16.1728 77.0997 15.8654C77.8385 15.558 78.4496 15.1039 78.9332 14.5031L77.5833 12.8893C76.8176 13.6997 75.8438 14.1049 74.6618 14.1049C73.735 14.1049 72.9559 13.8674 72.3246 13.3923C71.7068 12.9033 71.324 12.2466 71.1762 11.4223H79.6182ZM72.1635 7.71265C72.7276 7.20965 73.4126 6.95815 74.2185 6.95815C75.0379 6.95815 75.7229 7.20965 76.2736 7.71265C76.8244 8.21565 77.1534 8.87234 77.2609 9.68273H71.1561C71.2769 8.85837 71.6127 8.20168 72.1635 7.71265ZM93.0237 31.6501C94.8185 30.4484 96 28.4041 96 26.0843C96 22.3859 92.9971 19.3877 89.2929 19.3877C86.9235 19.3877 84.8411 20.6144 83.6479 22.4665C87.9921 23.9574 91.45 27.3508 93.0237 31.6501ZM66.2604 31.6504C64.4654 30.4487 63.2839 28.4044 63.2839 26.0845C63.2839 22.3861 66.2868 19.3879 69.991 19.3879C72.3604 19.3879 74.4429 20.6147 75.636 22.4668C71.2919 23.9577 67.834 27.3511 66.2604 31.6504Z"
      fill="white" />
  </symbol>

  <symbol id="tag" viewBox="0 0 81 122">
    <path
      d="M40.6123 0.562012C18.3304 0.562012 0.302246 17.8072 0.302246 39.0582C0.302246 60.3092 40.6123 121.211 40.6123 121.211C40.6123 121.211 80.9224 60.3092 80.9224 39.0582C80.9224 17.8072 62.8943 0.562012 40.6123 0.562012Z"
      fill="#F58021" />
  </symbol>

  <symbol id="tag-stroked" viewBox="0 0 100 144">
    <path
      d="M49.6123 8.56201C27.3304 8.56201 9.30225 25.8072 9.30225 47.0582C9.30225 68.3092 49.6123 129.211 49.6123 129.211C49.6123 129.211 89.9224 68.3092 89.9224 47.0582C89.9224 25.8072 71.8943 8.56201 49.6123 8.56201Z"
      fill="white" />
    <path
      d="M50.0001 2.33496C23.6474 2.33496 2.32568 22.2504 2.32568 46.7919C2.32568 71.3334 50.0001 141.665 50.0001 141.665C50.0001 141.665 97.6745 71.3334 97.6745 46.7919C97.6745 22.2504 76.3528 2.33496 50.0001 2.33496Z"
      stroke="white" stroke-width="3" stroke-miterlimit="10" stroke-linejoin="round" />
  </symbol>

  <symbol id="cam-icon" viewBox="0 0 20 20">
    <path
      d="M10.0051 10.9923C10.6159 10.9923 11.2128 10.8162 11.7206 10.4863C12.2284 10.1563 12.6242 9.68741 12.8579 9.13877C13.0916 8.59013 13.1527 7.98642 13.0336 7.40398C12.9145 6.82155 12.6204 6.28654 12.1885 5.86663C11.7567 5.44672 11.2065 5.16075 10.6075 5.0449C10.0086 4.92904 9.38772 4.98851 8.8235 5.21576C8.25929 5.44302 7.77704 5.82786 7.43775 6.32162C7.09846 6.81539 6.91737 7.3959 6.91737 7.98975C6.91737 8.78607 7.24268 9.54978 7.82175 10.1129C8.40083 10.676 9.18622 10.9923 10.0051 10.9923ZM10.0051 6.9889C10.2087 6.9889 10.4077 7.0476 10.577 7.15757C10.7462 7.26755 10.8782 7.42386 10.9561 7.60674C11.034 7.78962 11.0543 7.99086 11.0146 8.185C10.9749 8.37915 10.8769 8.55748 10.7329 8.69745C10.589 8.83742 10.4056 8.93275 10.2059 8.97136C10.0063 9.00998 9.79934 8.99016 9.61127 8.91441C9.42319 8.83866 9.26244 8.71038 9.14935 8.54579C9.03625 8.3812 8.97589 8.1877 8.97589 7.98975C8.97589 7.72431 9.08433 7.46974 9.27735 7.28204C9.47037 7.09435 9.73217 6.9889 10.0051 6.9889ZM19.8758 16.1567C19.3732 14.5358 18.456 13.0654 17.21 11.883C17.9035 10.6641 18.2581 9.29024 18.2385 7.89726C18.2189 6.50429 17.8258 5.14039 17.0982 3.94032C16.3706 2.74026 15.3336 1.74557 14.0896 1.05452C12.8457 0.363479 11.4378 0 10.0051 0C8.57249 0 7.16463 0.363479 5.92066 1.05452C4.67669 1.74557 3.63967 2.74026 2.91206 3.94032C2.18445 5.14039 1.79143 6.50429 1.77183 7.89726C1.75224 9.29024 2.10674 10.6641 2.80032 11.883C1.547 13.0615 0.625601 14.533 0.124247 16.1567C-0.0097316 16.6019 -0.0357768 17.0713 0.0481558 17.528C0.132088 17.9847 0.323715 18.4163 0.608 18.7889C0.897643 19.1677 1.27506 19.4748 1.70963 19.6852C2.14419 19.8956 2.62366 20.0035 3.1091 19.9999H16.9012C17.3849 20.0019 17.8623 19.8933 18.295 19.683C18.7276 19.4726 19.1034 19.1664 19.392 18.7889C19.6763 18.4163 19.8679 17.9847 19.9518 17.528C20.0358 17.0713 20.0097 16.6019 19.8758 16.1567ZM10.0051 1.98466C11.2266 1.98466 12.4205 2.33686 13.4361 2.9967C14.4517 3.65655 15.2432 4.59442 15.7106 5.6917C16.178 6.78899 16.3003 7.99641 16.062 9.16128C15.8238 10.3262 15.2356 11.3962 14.3719 12.236C13.5083 13.0758 12.4079 13.6477 11.2099 13.8794C10.012 14.1112 8.7703 13.9922 7.64186 13.5377C6.51342 13.0832 5.54893 12.3135 4.87035 11.326C4.19177 10.3385 3.82958 9.17744 3.82958 7.98975C3.82958 6.3971 4.48022 4.86968 5.63836 3.74351C6.79651 2.61734 8.36729 1.98466 10.0051 1.98466ZM17.7452 17.5879C17.6483 17.7168 17.5212 17.8213 17.3744 17.8926C17.2276 17.964 17.0653 18.0002 16.9012 17.9982H3.1091C2.94497 18.0002 2.78272 17.964 2.6359 17.8926C2.48908 17.8213 2.36194 17.7168 2.26511 17.5879C2.17256 17.4639 2.11051 17.3209 2.08375 17.17C2.05698 17.019 2.06621 16.8641 2.11072 16.7171C2.48019 15.5074 3.14391 14.4019 4.04573 13.4944C4.81469 14.2786 5.73935 14.9029 6.76371 15.3295C7.78807 15.7561 8.89081 15.976 10.0051 15.976C11.1195 15.976 12.2222 15.7561 13.2466 15.3295C14.2709 14.9029 15.1956 14.2786 15.9646 13.4944C16.8664 14.4019 17.5301 15.5074 17.8996 16.7171C17.9441 16.8641 17.9533 17.019 17.9265 17.17C17.8998 17.3209 17.8377 17.4639 17.7452 17.5879Z" />
  </symbol>

  <symbol id="sidebar-arrow" viewBox="0 0 16 15">
    <path d="M7 13.6591L8.36504 15L16 7.5L8.36504 0L7 1.34091L13.2699 7.5L7 13.6591Z" />
    <path d="M0 13.6591L1.36504 15L9 7.5L1.36504 0L0 1.34091L6.26992 7.5L0 13.6591Z" />
  </symbol>

  <symbol id="down-arrow" viewBox="0 0 15 9">
    <path d="M1.34091 0L0 1.36504L7.5 9L15 1.36504L13.6591 0L7.5 6.26992L1.34091 0Z" />
  </symbol>

  <symbol id="circle" viewBox="0 0 104 104">
    <circle cx="52" cy="52" r="52" />
  </symbol>

  <symbol id="circle-stroke" viewBox="0 0 120 120">
    <g>
      <circle cx="60" cy="60" r="58.5" stroke="white" stroke-width="3" />
      <path
        d="M112 60C112 88.7188 88.7188 112 60 112C31.2812 112 8 88.7188 8 60C8 31.2812 31.2812 8 60 8C88.7188 8 112 31.2812 112 60Z" />
    </g>
  </symbol>

</svg>